<?xml version="1.0" encoding="utf-8"?>
<!-- Generator: Adobe Illustrator 28.1.0, SVG Export Plug-In . SVG Version: 6.00 Build 0)  -->
<svg version="1.1" id="图层_1" xmlns="http://www.w3.org/2000/svg" xmlns:xlink="http://www.w3.org/1999/xlink" x="0px" y="0px"
	 viewBox="0 0 32 32" style="enable-background:new 0 0 32 32;" xml:space="preserve">
<style type="text/css">
	.st0{fill-rule:evenodd;clip-rule:evenodd;}
</style>
<path class="st0" d="M1.3,21.1c0,0.1-0.1,0.1,0,0.2c0.1,0.1,0.2,0,0.2-0.1C1.6,21.1,1.6,21,1.5,21c0,0-0.1,0-0.1,0L1.3,21.1
	L1.3,21.1z M8.2,12c0,0-0.1-0.4,0.3-0.4L8.2,12L8.2,12z M8.7,11.5c0,0,0.3-0.2,0.5,0L8.7,11.5L8.7,11.5z M9.7,11.8
	c0,0,0.2,0.2,0.2,0.3L9.7,11.8L9.7,11.8z M9.9,12.6c0,0,0.1-0.1,0.1-0.3L9.9,12.6L9.9,12.6z M8,13.3c0,0,0,0.3,0.3,0.4L8,13.3
	L8,13.3z M8.7,13.7c0,0,0.4,0.1,0.6-0.2L8.7,13.7L8.7,13.7z M4.9,23.7c0,0.1-0.2,0-0.2,0.2c0,0,0,0.1,0.1,0c0.1,0,0.1,0.1,0.2,0.1
	c0.1,0,0.1-0.2,0.1-0.2c0,0,0-0.1,0-0.1C5,23.5,5,23.6,4.9,23.7C4.9,23.6,4.9,23.6,4.9,23.7L4.9,23.7L4.9,23.7z M9,23.9
	c0,0,0,0.2,0,0.2c0,0,0,0.3,0,0.3c0,0,0,0,0,0c0,0,0.2-0.1,0.2-0.1c0.1-0.1,0,0,0.1-0.1c0-0.1,0-0.1,0-0.2c0-0.1,0-0.1-0.1-0.1
	C9.1,23.8,9.1,23.9,9,23.9C9,23.9,9,23.8,9,23.9L9,23.9L9,23.9z M25.3,21.1c0,0-0.3,0.2-0.3,0.3c0.1,0.2,0.3,0.2,0.4,0.1
	c0.3-0.1,0.1-0.2,0.1-0.3C25.5,21.1,25.4,21,25.3,21.1L25.3,21.1L25.3,21.1z M22.3,21.6c-0.2,0.1,0,0.2,0.1,0.1
	C22.5,21.5,22.3,21.6,22.3,21.6L22.3,21.6L22.3,21.6z M8.2,12l0.3-0.4C8.2,11.7,8.2,12,8.2,12L8.2,12z M8.7,11.5l0.5,0
	C9.1,11.4,8.7,11.5,8.7,11.5L8.7,11.5z M9.7,11.8c0,0,0.1,0.2,0.2,0.3L9.7,11.8L9.7,11.8z M9.9,12.3l-0.1,0.3
	C9.9,12.4,9.9,12.3,9.9,12.3L9.9,12.3z M9.3,13.5c0,0-0.3,0.2-0.6,0.2L9.3,13.5L9.3,13.5z M8,13.3l0.3,0.4C8.1,13.5,8,13.3,8,13.3
	L8,13.3z M8.5,23.6c0.7-0.7,0.8-1.3,0.4-1.8c-0.2-0.2-0.5-0.4-0.9-0.6c-0.2-0.1-0.2-0.1-0.4-0.1c-0.1,0-0.1-0.1-0.3-0.3
	c-0.2-0.3-0.1-0.3-0.1-0.3s0.1,0.1,0.3,0.2c0.2,0.1,0.2,0,0.4,0c0.2,0,0.1,0,0.2,0.1c0.2,0,0.2,0,0.4,0.1C8.9,21,9,21,9.3,21.1
	c0.2,0.1,0.2,0.1,0.3,0.2c0.1,0,0.2,0.3,0.3,0.5c0.1,0.2,0.7,0.8,0.7,0.8s-0.2,0.2-0.2,0.2c0,0,0,0.1,0.2,0.1c0.2,0,0.1,0.1,0.2,0.2
	c0.1,0.1,0.2,0.1,0.4,0.2c0.2,0.1,0.2,0.1,0.4,0.2c0.2,0,0.4,0.3,0.5,0.4c0.1,0.1,0.1,0.2,0.1,0.2c0,0,0.1,0.1,0.2,0.1
	c0.1,0,0.1,0.1,0.1,0.1c0.1,0,0.1,0,0.2,0c0.1,0,0.2,0,0.3,0.1c0.1,0,0.2,0.2,0.3,0.2c0.1,0.1,0.2,0.2,0.2,0.2c0.1,0.1,0,0.1,0,0.2
	c0,0.1,0,0.2,0,0.3c0,0.1,0.1,0.3,0.2,0.4c0.1,0.1,0.2,0.2,0.4,0.2c0.2,0.1,0.3,0.4,0.3,0.6c0.1,0.1,0.4,0.3,0.6,0.4
	c0.1,0.1,0.3,0.1,0.6,0.2c0.3,0,0.3,0,0.5,0.1c0.3,0.1,0.5,0.1,0.6,0.1c0.1,0.1,0.3,0.1,0.5,0c0.1-0.1,0.3,0,0.4,0
	c0.2,0,0.1,0.1,0.3,0.1c0.2,0,0.1,0,0.2,0.1c0,0.1,0.2,0.1,0.4,0.1c0.2,0,0.1,0,0.2,0.2c0.1,0.1,0.1,0,0.3,0
	c0.2-0.1,0.2-0.1,0.3-0.1c0.2-0.1,0.3,0,0.5-0.1c0.2-0.1,0.3,0,0.4-0.1c0.1-0.1,0.2-0.1,0.3-0.1c0.1,0,0.1-0.1,0-0.2
	c-0.1-0.1,0-0.1,0.1-0.2c0.1-0.1,0.4-0.1,0.5-0.1c0.1,0,0.2-0.1,0.2-0.2c0-0.1,0.1-0.2,0.3-0.4c0.1-0.2,0.1-0.1,0.2-0.2
	c0.1-0.1,0.2,0,0.3,0c0.1,0,0.1,0.1,0.1,0.1c0.1,0,0.1-0.1,0.2-0.2c0.1-0.1,0-0.1-0.1-0.2c-0.1,0-0.1-0.1,0-0.2
	c0.1-0.1,0.1-0.1,0.2-0.1c0.1,0,0.2,0,0.3-0.1c0.1-0.1,0.2-0.1,0.6-0.2c0.4-0.1,0.8-0.4,0.8-0.4c0,0.1-0.2,0.2-0.5,0.3
	c-0.3,0.1-0.5,0.2-0.6,0.2c-0.2,0-0.2,0.1-0.1,0.2c0.1,0.1,0.3-0.1,0.5-0.2c0.2-0.1,0.1,0,0.3,0c0.2,0,0.1,0.1,0.3,0.2
	c0.2,0.1,0.3,0,0.3,0s0.1-0.2,0.2-0.2c0-0.1,0.1-0.2,0.1-0.3c0.1-0.1,0.1-0.1,0.2-0.2c0.1,0,0.3-0.1,0.3-0.2c0.1,0,0.1-0.1,0.1-0.2
	c0-0.1,0.1-0.2,0.1-0.3c0-0.1,0.1-0.1,0.2-0.2c0.1-0.1,0.3-0.1,0.4-0.2c0.2-0.1,0.4-0.1,0.7-0.2c0.3-0.1,0.1-0.1,0.3-0.2
	c0.1-0.1,0.1-0.2,0.3-0.4c0.2-0.2,0.3-0.2,0.3-0.2s0.3,0,0.4-0.1c0.2-0.1,0.2-0.1,0.3-0.2c0.1-0.1,0.3-0.2,0.3-0.2s0.1-0.1,0.3-0.1
	c0.2,0,0.2-0.1,0.3-0.2c0.1-0.1,0.1-0.1,0.1-0.2c0.1-0.1,0.1-0.1,0.2-0.2c0.1-0.1,0.2-0.2,0.3-0.3c0.2-0.1,0.7-0.6,0.7-0.6
	c-1.4,3.1-6,7.8-12.2,7.8s-9.9-3.9-9.9-3.9C8.4,24.1,8,24.1,8,24.1s0.2-0.2,0.2-0.4C8.2,23.8,8.4,23.7,8.5,23.6
	c-0.1,0,0.1,0.3,0.3,0.5v0.3c0,0,0,0.1,0.1,0.2c0.1,0.1,0.2,0.1,0.3,0.1c0.1,0,0.4-0.2,0.4-0.4c0-0.2,0-0.4,0-0.4l0.2-0.2l0.1,0
	c0,0,0.1,0.3,0.1,0.3c0,0.1,0.1,0.1,0.2,0.1s0.4-0.2,0.4-0.5c0-0.3-0.2-0.5-0.5-0.5c-0.2,0.1-0.3-0.1-0.5,0.1c0,0-0.1-0.1-0.3,0.1
	C9,23.5,9,23.5,9,23.5S9,23.5,9,23.6c0,0-0.2,0.1-0.2,0.3C8.8,23.9,8.5,23.7,8.5,23.6L8.5,23.6z M9.7,19.6c0,0-0.1,0.1-0.1,0.1
	c0,0.1,0,0,0,0.1c0,0.1,0,0.1,0,0.2c0,0,0,0.2,0.1,0.1c0,0,0.1,0,0.1,0c0.1,0,0,0,0.1,0.1c0,0,0.1,0,0.1,0.1c0,0,0.1,0.1,0.2,0.2
	c0,0,0.2,0.1,0.1,0c0,0,0,0,0.1,0c0,0,0,0.1,0.1,0.1c0,0,0.2,0,0.2,0c0,0,0.1,0,0.1,0.1c0,0.1,0.2,0.2,0.2,0.2c0,0,0.1,0.1,0.1,0
	c0,0,0.1-0.1,0.2,0c0.1,0,0.2,0,0.3,0.1c0,0,0.1,0.1,0.2,0c0,0,0,0,0,0c0,0,0-0.1,0-0.1c0,0,0.1-0.1,0.1-0.2c0-0.1-0.1-0.1-0.2-0.1
	c-0.1,0-0.1,0.1,0,0.2c0.1,0.1,0,0.1-0.1,0.1c0-0.1,0-0.2-0.1-0.2c-0.1,0-0.1-0.1,0-0.1c0.1-0.1,0-0.1,0.1,0c0,0,0.2,0,0.3,0
	c0,0,0.1,0,0.2,0c0.1,0,0.1,0,0.2,0.1c0.1,0,0.1,0,0.2,0c0,0,0.3,0.1,0.3,0c0-0.1-0.1-0.1-0.2-0.1c-0.1,0-0.1,0-0.1-0.1
	c0,0-0.2-0.1-0.2-0.2c0,0-0.2-0.2-0.2-0.2c-0.2-0.1-0.2-0.1-0.4-0.2c0,0-0.2,0-0.3-0.1c0-0.1-0.3-0.1-0.2,0c0,0,0,0,0,0
	c-0.1,0,0,0.1,0.1,0.1c0.1,0,0.1,0.1,0.1,0.2c0,0-0.1,0.1-0.1,0.1c0,0,0-0.1,0-0.1c0,0,0.1,0,0-0.1c0,0-0.1,0-0.1,0.1
	c0,0,0,0.1,0,0.1c0,0-0.1,0.1-0.1,0c0,0-0.1-0.1-0.1,0c-0.1,0-0.3,0-0.1-0.1c0,0,0,0-0.1,0c0,0-0.2,0-0.2,0c-0.1-0.1,0,0-0.1-0.1
	c-0.1,0-0.1,0-0.1-0.1c0-0.1-0.2,0-0.1-0.2c0,0,0.1,0,0.2,0c0,0.1,0.1,0,0.3,0c0,0,0,0.1,0,0.1c0,0,0.1,0.1,0.1,0.1
	c0-0.1,0,0,0.1-0.1c0,0,0.1,0,0.1-0.1c0.1,0,0.1,0.1,0.2,0c0.1,0,0-0.1,0-0.1c-0.1,0,0-0.1-0.1,0c-0.1,0-0.1,0-0.2-0.1
	c-0.1,0-0.1,0-0.2-0.1c-0.1,0-0.1,0-0.1,0c0,0,0,0.1-0.1,0.1c0,0-0.1,0-0.1,0c-0.1,0,0,0.1-0.1,0.1C9.8,19.6,9.9,19.6,9.7,19.6
	C9.8,19.6,9.7,19.6,9.7,19.6L9.7,19.6z M12.3,21.8C12.3,21.8,12.2,21.6,12.3,21.8c-0.1,0-0.2,0.1-0.2,0.1c0,0-0.1,0.1,0,0.1
	c0.1,0,0,0.1,0.1,0.1c0,0,0.1,0.1,0,0.1c-0.1,0,0,0.2-0.1,0.2c-0.1,0,0,0-0.1,0c-0.1,0,0,0.1,0,0.1c0.1,0.1,0.1,0.1,0.2,0
	c0-0.1,0.2,0,0.2,0.1c0,0,0.2,0.1,0.2,0.1c0,0,0.1,0,0.1,0c0.1,0,0.2-0.1,0.2-0.1c0.2-0.1,0.2,0,0.3-0.1c0,0,0.1-0.1,0.1-0.1
	c0.1-0.1,0.1-0.3,0.1-0.4c0-0.1-0.1-0.2-0.2-0.2c-0.1,0,0-0.2,0-0.2c0-0.1,0-0.1,0-0.2c-0.1-0.1,0-0.2-0.2-0.2c-0.1,0-0.3,0-0.4,0
	c-0.1,0-0.1,0-0.2,0.1c0,0.1-0.2,0.1,0,0.2c0,0,0.1,0,0,0.1c0,0.1,0,0.1-0.1,0.1C12.3,21.8,12.4,21.8,12.3,21.8L12.3,21.8z
	 M14.8,20.2L14.8,20.2C14.8,20.2,14.8,20.2,14.8,20.2c0.1-0.1,0.2,0.1,0.2,0c0-0.1,0.2,0.2,0.2,0.3c0,0.1,0.1,0.3,0.1,0.4
	c0,0.1,0,0.1-0.1,0.2c0,0-0.1,0.1-0.1,0.1c-0.1,0-0.1,0.1-0.1,0.1c0,0,0.4,0.1,0.4,0c0.1-0.1,0.1-0.1,0.2-0.1c0.1,0,0.2,0.1,0.2,0.1
	c0.1,0.1,0.2,0.1,0.2,0.3c0,0.1,0,0-0.1,0.1c0,0-0.2,0-0.2,0.1c0,0.1,0,0,0,0.1c-0.1,0.1,0,0.1,0.1,0.1c0,0,0.1,0,0.2,0
	c0.1,0,0.2,0,0.3,0c0.2,0,0.1-0.1,0.1-0.1c0.1-0.1,0.1-0.3,0-0.5c0-0.1-0.1-0.2-0.1-0.3c-0.1-0.2-0.1-0.2-0.2-0.4
	c-0.1-0.2-0.3-0.2-0.4-0.3c-0.1-0.1-0.3-0.1-0.3-0.2c-0.1-0.1-0.3-0.1-0.3-0.1c-0.1-0.1-0.1-0.1-0.2,0c-0.1,0.1-0.1,0-0.1-0.1
	c0,0,0-0.1,0-0.1c-0.1,0-0.1,0-0.2,0.1c-0.1,0.1,0,0.1,0,0.2c-0.1,0.1,0.1,0.1,0.1,0.1c0.1,0.1,0,0,0.1,0
	C14.8,20.3,14.7,20.2,14.8,20.2L14.8,20.2z M14.8,20.8c0-0.2-0.2-0.2-0.1,0c0,0.1,0,0.2-0.1,0.2c-0.1,0-0.1,0.3,0.1,0.1
	c0.1-0.1,0.1-0.1,0.2,0c0.1,0.1,0.2,0,0-0.2C14.8,20.9,14.8,20.8,14.8,20.8L14.8,20.8L14.8,20.8z M13.3,19.4
	C13.3,19.3,13.3,19.4,13.3,19.4c0.1-0.2,0-0.3-0.1-0.1c-0.1,0.1-0.2,0.3,0,0.4c0,0.1-0.1,0.2,0.1,0.3c0,0,0,0,0,0.1
	c0,0,0.1,0.4,0.1,0.4c0,0.1,0.1,0.4,0.1,0.3c0-0.1-0.1-0.2,0-0.3c0,0,0.1-0.1,0.1-0.1c0,0,0.1,0,0.1-0.1c0,0,0.1,0,0.1-0.1
	c0,0,0-0.1-0.1-0.1c-0.1-0.1-0.2,0-0.2-0.2c0-0.1,0-0.2,0-0.2C13.4,19.5,13.3,19.5,13.3,19.4C13.3,19.4,13.3,19.4,13.3,19.4
	L13.3,19.4z M14,20C14,20,13.8,20,14,20c0,0.1,0,0.1,0,0.2c0,0,0,0.1-0.1,0.1c0,0,0-0.2-0.1,0c-0.1,0.1,0,0.1-0.1,0.1
	c0,0-0.1,0.1,0,0.2c0.1,0.1,0.1,0.1,0.2,0.1c0.1,0,0-0.1,0.1,0c0.1,0.1,0.2,0,0.2-0.1c0-0.1,0-0.1,0.1-0.2c0-0.1,0-0.2-0.1-0.2
	C14.1,20.1,14.1,20.1,14,20C14,20,14,20,14,20L14,20z M6.3,15.6c0,0,0.5,1.1,0.5,1.7l0.1,0C6.9,17.3,7,16.7,6.3,15.6L6.3,15.6z
	 M8,7.5c-0.1,0-0.1,0.1-0.1,0.2c0,0.1,0,0.2,0,0.3C7.9,8.1,8,8.4,8,8.5C8,8.6,7.8,9,7.8,9.1c-0.1,0.1,0.1,0.3,0.1,0
	C7.8,9,8,8.8,8.1,8.7c0,0,0.2-0.1,0.1-0.1c0,0-0.1,0-0.1-0.1c0-0.2,0-0.5,0-0.7C8,7.7,8,7.5,8,7.5L8,7.5z M8.5,8.6c0,0,0-0.1-0.1,0
	c0,0,0.1,0.1,0,0.2c0,0.1,0.1,0.1,0.1,0C8.6,8.7,8.7,8.7,8.5,8.6C8.6,8.6,8.5,8.6,8.5,8.6L8.5,8.6z M8.3,9.1C8.3,9.1,8.4,9,8.4,9
	C8.4,9,8.4,9.1,8.3,9.1C8.4,9.2,8.3,9.3,8.3,9.1C8.3,9.2,8.2,9.2,8.3,9.1L8.3,9.1z M13.5,13.3c0,0-0.1-0.1-0.1-0.1c0,0,0-0.1,0-0.1
	c0.1,0.1,0,0.1,0.2,0.1c0.1,0,0.1,0.1,0,0.1C13.6,13.3,13.6,13.4,13.5,13.3C13.5,13.3,13.5,13.3,13.5,13.3L13.5,13.3z M13.4,13.6
	C13.4,13.5,13.5,13.6,13.4,13.6c0,0.1,0.2,0.2,0.1,0.3c0,0,0,0-0.1,0C13.4,13.8,13.3,13.7,13.4,13.6L13.4,13.6z M13.7,13.9
	c0,0,0.1,0,0.1,0c0,0,0,0.1,0,0.1c0,0,0,0-0.1,0C13.7,14,13.6,14,13.7,13.9C13.6,13.9,13.6,13.9,13.7,13.9L13.7,13.9z M13.9,13.3
	C13.9,13.3,13.9,13.3,13.9,13.3C13.9,13.2,13.9,13.2,13.9,13.3c0.1,0,0.1,0,0.2,0.1c0,0.1,0.1,0.1,0.1,0.2c0,0.1,0,0.2,0,0.3
	c0,0.1-0.1,0.1-0.1,0c0-0.1,0.1-0.2,0.1-0.3C14.1,13.4,14.1,13.4,13.9,13.3C14,13.3,14,13.3,13.9,13.3L13.9,13.3z M9.8,15.2
	c0.2-0.1,0.4,0.3,0.4,0.4c0,0.1,0,0.1-0.1,0.2s-0.1,0-0.2,0c-0.1,0-0.2-0.1-0.3-0.2c-0.1-0.1,0-0.1,0-0.1c0,0,0-0.1,0-0.2
	C9.7,15.3,9.8,15.2,9.8,15.2L9.8,15.2z M9.6,18.4c0-0.3,0.2-0.2,0.2-0.3c0-0.1,0-0.2,0.2-0.2c0.1,0,0.1,0.1,0.2,0.1
	c0,0.1,0,0.1,0.1,0.2c0.1,0.1,0,0.1,0,0.2c0,0.1,0,0.1,0,0.2c0,0,0.1,0.1,0.1,0.2c0.1,0.1,0,0.1,0,0.2c0,0.1,0,0.1-0.1,0.1
	c-0.1,0.1-0.1,0-0.2,0c-0.1,0,0,0-0.1,0.1c-0.1,0.1-0.2,0.2-0.3,0.1c0-0.1-0.1-0.3-0.2-0.3c0-0.1,0-0.2-0.1-0.3
	c0-0.1-0.1-0.1-0.1-0.2C9.5,18.5,9.6,18.4,9.6,18.4L9.6,18.4z M7,5.5C7,5.5,7,5.9,6.9,6C6.8,6.2,6.8,6.4,6.7,6.5
	C6.6,6.6,6.5,6.9,6.4,7C6.4,7.1,6.3,7.3,6.3,7.5c0,0.1,0,0.2-0.1,0.3C6.1,8,6.1,8,6,8.2c0,0.2-0.2,0.3-0.2,0.4
	c0,0.1-0.1,0.2-0.1,0.3c0,0.1,0,0.3-0.1,0.4c-0.1,0.1,0,0.2,0,0.2s0.1-0.2,0.1-0.2c0-0.1,0.1-0.1,0.1-0.2C6,9,6,8.9,6,8.9
	s0,0.3-0.1,0.3c0,0.1-0.1,0.1-0.1,0.2c0,0,0,0.1,0,0.1c0,0,0,0,0.1,0c0.1,0,0.1-0.1,0.2-0.2c0.1-0.1,0.3-0.2,0.4-0.2
	c0.1,0,0.1,0.1,0.1,0.1S6.4,9.5,6.3,9.7C6.2,9.9,6,10.2,6,10.3c0,0.1-0.1,0.8-0.1,1s0,0.3,0,0.4c-0.1,0.1-0.2,0.4-0.2,0.5
	c0,0.1,0,0.7-0.1,1c-0.1,0.3,0,0.6,0,0.8C5.8,14,6,14.3,6,14.4C6,14.6,6,15,6,15.1c0,0-0.3-0.1-0.5,0.2c0,0,0.3-0.2,0.5,0
	c0,0-0.2,1.4-0.3,2c0,0-0.3-1.5-0.3-1.6c0,0,0.2,1.9,0.3,2.3c0,0,0.1-0.7,0.1-0.9c0-0.2,0.1-1.1,0.2-1.2c0-0.1,0-0.2,0.1-0.3
	C6,15.5,6,15.4,6,15.4l0.1,0.2c0,0,0,0.1,0,0.2c0,0.1-0.1,0.1-0.1,0.2c0,0.1,0.1,0.1,0.1,0.2c0,0.1,0,0.1,0,0.2c0,0.1,0,0.1,0,0.2
	c0,0.1,0.1,0.1,0.1,0.3c0,0.1,0.1,0.2,0.1,0.3c0,0.2,0.1,0.3,0.1,0.3s0.4,0.8,0.6,0.9c0.2,0.1,0.1,0.2,0.1,0.2l-0.1,0.6
	c0,0-0.1,0-0.2,0c-0.1,0.1-0.3,0-0.3,0.1c-0.1,0.1-0.2,0.1-0.2,0.1s-0.3-0.9-0.3-1.1c0,0,0.3,1.2,0.3,1.3c0,0-0.3-0.2-0.3-0.6
	c0-0.3-0.1-0.4-0.1-0.4s-0.3-1.4-0.3-1.8c0,0,0,1.3,0.4,2.7c0,0-0.2-0.1-0.3-0.1c-0.1,0-0.1,0-0.2,0c-0.1,0-0.2,0-0.3,0
	c-0.1,0-0.2,0-0.3-0.2c-0.1-0.2-0.5-3.5-0.5-4c0-0.6-0.4-1.1,0.1-3c0.4-1.9,1.2-3.7,1.3-4C5.6,7.7,6.2,6.5,7,5.5L7,5.5z M14.1,22.6
	c0,0.1,0,0.1,0,0.3c0,0.1,0,0,0.1,0.1c0.1,0.1,0.1,0,0.2,0.2c0.1,0.1,0.2,0.2,0.2,0.3c0,0.1,0.1,0.2,0,0.3c-0.1,0.1,0,0.3-0.1,0.3
	c0,0,0.1,0.1,0.1,0.1c0,0,0.3,0.1,0.2,0.2c-0.1,0.1,0.2,0.3,0.3,0.1c0-0.1,0-0.1,0.1-0.1c0.1,0,0,0,0.1,0c0.1,0,0.3,0.1,0.4,0.2
	c0.1,0.1,0.3,0.1,0.4,0c0,0,0.2-0.1,0.2-0.1c0.1,0,0.3,0,0.2-0.1c0,0-0.1-0.2,0.1,0c0,0,0.2,0.1,0.2,0.2c0,0.1,0.2,0.2,0,0.5
	c-0.2,0.3-0.1,0.2-0.4,0.3c0,0-0.1,0.1,0,0.1c0.1,0,0-0.1,0.2-0.1c0.2,0,0.4-0.3,0.4-0.5c0-0.1,0,0,0-0.2c0-0.2-0.1-0.3-0.2-0.5
	c0,0-0.3-0.2-0.3-0.3c0,0-0.3-0.2-0.3-0.3c0,0-0.4-0.3-0.5-0.3c-0.1-0.1-0.1-0.1-0.2-0.1c0,0-0.1-0.1-0.1-0.1c0,0-0.2-0.1-0.3-0.1
	c-0.1,0-0.5-0.2-0.6-0.2C14.4,22.6,14.3,22.8,14.1,22.6C14.1,22.6,14.1,22.6,14.1,22.6L14.1,22.6z M24.4,22.2c0,0,0.2-0.1,0.5-0.4
	C24.7,21.9,24.4,22.2,24.4,22.2L24.4,22.2z M22.3,22.3c0,0,0.6,0.1,1.5,0C23.3,22.2,22.3,22.3,22.3,22.3L22.3,22.3z M22.9,23.3
	c0,0,0.4-0.2,0.8-0.6C23.4,22.8,22.9,23.3,22.9,23.3L22.9,23.3z M19.9,25c0,0,0.9-0.2,1.5-0.7C21,24.4,19.9,25,19.9,25L19.9,25z
	 M17.8,25c0,0-0.1-0.4,0-0.5c0.1,0,0.2,0,0.3,0c0.9,0.5,2,1.1,3,1.3c-1.9-0.6-4.5-2.4-4.5-2.4s0.4,0.3,0.9,0.7
	C17.6,24.3,17.7,24.7,17.8,25L17.8,25z M27.9,19.3c-0.2,0.4-0.4,0.6-0.8,0.9C27.1,20.2,27.7,19.6,27.9,19.3L27.9,19.3z M27.6,21.6
	L27.6,21.6c-1.4,0.4-2.5,0.4-2.5,0.4s1.5-0.2,3.2-0.7c0.2-0.7,0.4-1.6,0.5-2.3c0,0.9-0.2,1.7-0.4,2.3c0.6-0.2,1.2-0.4,1.7-0.7
	c-0.5,0.3-1.1,0.6-1.7,0.8c-0.2,0.7-0.5,1.2-0.5,1.2s0.1-0.3,0.3-0.7c0,0-0.1-0.1-0.1-0.1c-0.1,0-0.1-0.1-0.2-0.1
	C27.7,21.7,27.6,21.6,27.6,21.6L27.6,21.6z M2,21.4c0.1,0,0.1-0.2,0-0.2C2,21.1,1.7,21.2,2,21.4C2,21.4,2,21.4,2,21.4L2,21.4z
	 M1,20.1c-0.1,0.1-0.2,0.1,0,0.2C1.1,20.4,1.3,20.1,1,20.1C1,20.1,1,20.1,1,20.1L1,20.1z M0.5,21.1c0,0.1,0,0.4,0.2,0.3
	c0.1,0,0.3-0.2,0.3-0.3c0-0.1,0.1-0.2,0-0.3c0,0-0.2,0-0.3,0C0.5,20.9,0.5,21.1,0.5,21.1L0.5,21.1z M8.1,4.5c0.1,0.1,0,0.4,0,0.6
	c0,0.1,0,0.3,0,0.4c0,0.1,0,0.1,0,0.2C8.1,5.7,8,5.8,8,5.8l-0.1,1l0-1L7.8,6c0,0-0.1,0.1-0.2,0.2C7.5,6.3,7.4,6.4,7.3,6.6
	C7.2,6.7,7.2,6.9,7.1,7.1c0,0.2,0,0.2,0,0.4c0,0.2-0.2,0.4-0.3,0.5C6.7,8.1,6.6,8.2,6.6,8.3c0,0.1-0.2,0.2-0.2,0.3
	c0,0.1,0.1,0.1,0.2,0.1c0.1,0,0.1,0.1,0.1,0.1s0,0.1,0,0.2C6.7,9,6.7,9,6.7,9c0,0.1-0.2,0.1-0.2,0.1c0,0-0.1-0.1-0.2-0.2
	C6.2,8.9,6.3,8.8,6.3,8.6c0-0.1,0.1-0.2,0.1-0.3c0-0.1,0-0.2,0-0.5c0-0.3,0.1-0.4,0.1-0.6c0-0.1,0.1-0.4,0.2-0.5
	C6.8,6.6,7,6.4,7,6.2C7.1,6.1,7,6,7.1,5.9c0-0.2,0.1-0.3,0.3-0.5C7.5,5.1,8.1,4.5,8.1,4.5L8.1,4.5z M12.8,1.4c0.2,0-0.9,0.7-0.9,0.7
	s-0.2,0.1-0.3,0.2c-0.1,0.1-0.7,0.5-0.9,0.7C10.6,3.1,10,3.7,9.9,3.8C9.8,3.9,9.2,4.5,9.1,4.6C9,4.8,8.8,5,8.8,5S8.6,5,8.5,4.9
	C8.4,4.8,8.6,4.6,8.6,4.4C8.7,4.2,9,3.9,9,3.9C8.7,4,8.3,4.2,8.3,4.2C10,2.5,12.8,1.4,12.8,1.4L12.8,1.4z M2.3,25.2
	C2.2,25.2,2.2,25.2,2.3,25.2C2.3,25.2,2.3,25.3,2.3,25.2C2.3,25.2,2.3,25.3,2.3,25.2C2.4,25.2,2.3,25.1,2.3,25.2L2.3,25.2z
	 M1.8,24.6c0,0-0.1,0.1-0.1,0.1c0,0,0.1,0.1,0.1,0.1c0.1,0,0-0.1,0.1-0.1c0,0,0.1-0.1,0-0.1C2,24.6,2,24.6,1.8,24.6
	C1.9,24.6,1.8,24.5,1.8,24.6L1.8,24.6z M1.5,25.1C1.5,25.1,1.4,25,1.5,25.1c-0.1-0.1-0.1-0.2,0-0.2c0.1,0,0.1,0,0.1,0
	c0.1,0.1,0,0.1,0,0.2C1.7,25.1,1.6,25.1,1.5,25.1C1.6,25,1.5,25,1.5,25.1L1.5,25.1z M1.1,24.8C1.1,24.7,1.1,24.8,1.1,24.8
	C1,24.8,1,24.8,1.1,24.8C1.1,24.9,1.1,24.9,1.1,24.8C1.1,24.8,1.1,24.8,1.1,24.8L1.1,24.8z M0.4,24.5C0.3,24.6,0.4,24.6,0.4,24.5
	c0.1,0,0.2,0.1,0.2,0c0,0,0,0-0.1-0.1c0,0-0.1,0-0.1,0C0.4,24.4,0.4,24.5,0.4,24.5C0.4,24.5,0.4,24.5,0.4,24.5L0.4,24.5z M1.5,25.7
	c0.1,0,0.2-0.1,0.2-0.2c0-0.1,0-0.1,0-0.1c-0.1-0.1-0.2-0.1-0.2-0.2c0-0.1-0.1-0.1-0.3-0.2C1.1,25,1,25,0.9,25c-0.2-0.1-0.1,0-0.3,0
	c-0.2,0-0.2,0-0.3,0.1c0,0-0.2,0.1-0.1,0.2c0.1,0.1,0.2,0.2,0.3,0.3c0.2,0.1,0.1,0.3,0.4,0.2c0.2,0,0.3,0.1,0.4,0c0,0,0.1,0,0.1,0
	C1.4,25.7,1.5,25.7,1.5,25.7L1.5,25.7z M-3.4,25.9c0,0-0.1,0.2-0.2,0.2c0,0-0.1,0.1-0.1,0.1c0,0.2,0.2,0.1,0.2,0.2
	c0.1,0.2,0.2,0,0.3,0c0.1,0,0.1-0.1,0.1-0.2c0-0.1-0.1-0.2,0-0.3c0,0,0-0.1-0.1-0.2c0-0.1,0-0.1-0.1-0.1
	C-3.3,25.7-3.4,25.8-3.4,25.9L-3.4,25.9z M-1.7,27.5c0,0.1-0.1,0.1,0.1,0.3c0.1,0.1,0.3,0.2,0.4,0.1c0,0,0.1,0,0.2-0.1
	c0,0,0.1-0.1,0.2-0.1c0.1-0.1,0.1-0.2,0.1-0.2c0,0,0.1-0.2,0.1-0.3c0,0,0,0,0-0.1c0-0.1,0-0.1-0.1-0.1c0,0-0.2,0-0.2,0
	c0,0-0.3,0.1-0.3,0.1C-1.5,27.2-1.7,27.3-1.7,27.5L-1.7,27.5z M0.5,25.8c0,0,0.1-0.1,0.2-0.1c0.1,0,0,0.1,0.1,0.1
	c0.1,0.1,0,0.4,0.1,0.5c0,0.1,0,0.1,0,0.2c0,0.2-0.1,0.2-0.1,0.4c0,0.1-0.1,0.3-0.2,0.3c-0.1,0.1-0.1,0-0.2,0
	c-0.1,0-0.1-0.2-0.2-0.3C0.1,27,0,26.8,0,26.8c-0.1-0.1-0.1-0.2-0.1-0.3c0.1-0.2,0.2-0.1,0.1-0.3c0-0.1,0.1-0.2,0.1-0.2
	c0.1,0,0.1-0.1,0.2-0.1C0.3,25.9,0.5,25.8,0.5,25.8L0.5,25.8z M3.9,26.2C3.9,26.1,3.9,26.1,3.9,26.2c0.1-0.1,0.1,0,0.2,0
	c0.1,0,0,0.1,0,0.1C3.8,26.4,3.8,26.4,3.9,26.2C3.9,26.2,3.9,26.2,3.9,26.2L3.9,26.2z M2.2,26.3c0,0-0.1,0.1-0.1,0.2
	c0,0.1,0.1,0.1,0.1,0.1c0.1,0,0.1,0,0.2,0c0,0,0.1-0.1,0.1-0.2c0,0,0.1-0.2-0.1-0.1C2.5,26.3,2.4,26.2,2.2,26.3
	C2.2,26.3,2.3,26.3,2.2,26.3C2.2,26.3,2.2,26.3,2.2,26.3L2.2,26.3z M7,24.4c-0.2-0.3-0.2,0.5-0.2,0.6c0,0.3,0.1,0.1,0,0.4
	c-0.1,0.2,0.1,0.6,0.4,0.6c0.3-0.1,0.1-0.4,0.3-0.3c0.1,0.1,0.2-0.7,0.2-0.9c0-0.4,0.1-0.4-0.2-0.6C7.3,24.1,7.3,24.3,7,24.4
	C7.1,24.4,7.1,24.4,7,24.4L7,24.4z M7.4,24.8c0.1,0.1,0.1-0.2,0.1-0.2c0.1-0.1-0.1-0.3-0.2-0.2C7.1,24.5,7.3,24.7,7.4,24.8L7.4,24.8
	z M8.1,24.6c0.2-0.1,0.1-0.5-0.2-0.2C7.8,24.5,8.1,24.6,8.1,24.6L8.1,24.6z M4.5,26.2c0.1,0.3,0.4,0.1,0.3-0.1
	C4.7,26,4.4,26,4.5,26.2L4.5,26.2z M5.2,24.7c-0.4,0.3-0.2,0.6-0.3,0.7c0,0-0.1,0.5,0.4,0.5c0.2,0,0.4,0,0.5,0
	c0.1,0,0.1-0.1,0.3-0.1c0.3,0,0.6-0.4,0.5-0.6c0-0.1,0-0.2,0-0.4c0-0.2,0-0.8-0.3-0.8c-0.2,0-0.2,0-0.4,0.1c0,0-0.4,0.2-0.4,0.2
	C5.5,24.2,5.3,24.6,5.2,24.7L5.2,24.7z M5.1,24.5c0,0.1,0,0.2-0.1,0.2c-0.2,0.1-0.3,0-0.3-0.3c0-0.1,0.2-0.2,0.3-0.2
	C5.1,24.4,5.2,24.3,5.1,24.5L5.1,24.5z M4,24.7c0,0.1,0,0.3-0.2,0.2c0,0-0.3-0.4-0.3-0.5c0-0.2,0-0.5,0.2-0.3c0,0,0.3,0.4,0.2,0.5
	C4,24.7,4,24.7,4,24.7L4,24.7z M2.5,24.6C2.5,24.6,2.5,24.6,2.5,24.6c-0.2,0-0.2,0-0.3,0c-0.4,0-0.1-0.4-0.1-0.5
	c0-0.2,0.2-0.3,0.3-0.2c0.1,0.1,0.3,0.2,0.3,0.2c0.2,0.2,0.1-0.1,0.4,0c0.6,0.3,0.1,0.3,0.2,0.6c0.1,0.3,0,0.3-0.3,0.4
	c-0.1,0.1-0.2,0-0.2,0c0-0.1,0-0.2,0-0.2C2.9,24.6,2.7,24.8,2.5,24.6L2.5,24.6z M0.6,23c0.3,0,0.2,0.4,0.5,0.2c0,0,0.1-0.1,0.1-0.1
	c0-0.1-0.1,0-0.2-0.2C1,23.1,0.7,22.8,0.6,23L0.6,23z M1.3,22.8c0.1,0.1,0,0.1,0.1,0.1c0.1,0,0.1,0.2,0,0.1c-0.1-0.1,0,0.1,0,0.1
	c-0.2,0,0,0.2,0,0.2c0,0.1,0.1,0.2,0.1,0.1c0-0.1,0-0.1,0.2-0.3c0.1-0.1-0.1-0.3-0.2-0.3C1.4,22.8,1.3,22.9,1.3,22.8L1.3,22.8z
	 M1.7,22.7c-0.3-0.1-0.7,0-0.9,0.1c-0.2,0.1-0.3,0-0.4,0.2c-0.2,0.2,0,0.5,0.2,0.7C0.6,23.9,0.8,24,1,24.1c0.3,0.1,0.3,0.1,0.6-0.1
	C2,23.7,1.9,23.6,2,23.4c0-0.1,0.1-0.3,0-0.4C1.9,22.8,1.8,22.8,1.7,22.7L1.7,22.7z M4.1,22.5c0-0.1-0.2-0.4-0.2-0.5
	c-0.1-0.3-0.3-0.6,0-0.9c0.2-0.2,0.2-0.1,0.3-0.2c0.1-0.1,0.3,0,0.4-0.3c0,0,0-0.2,0-0.2c0-0.1,0-0.1,0-0.3c0-0.1,0-0.2,0.2-0.4
	c0.2-0.2,0.3-0.1,0.5-0.1c0.2,0,0,0.4,0.2,0.4c0.3,0,0,0.2,0,0.3c0.2,0,0.2,0,0.3,0c0.1,0,0,0.3,0.2,0.4c0,0,0,0,0,0
	c0,0,0.3,0.3,0.3,0.2c0-0.2,0.1-0.2,0.3-0.2c0.3,0.1,0.1,0.3,0.2,0.4c0.2,0.1,0.4,0.2,0.4,0.5c0,0,0,0.1,0,0.1
	c0.1,0,0.3-0.1,0.4-0.2c0,0,0.3-0.1,0.4-0.1c0.1,0.1,0.2,0,0.4,0.1c0.2,0.1,0.1,0.1,0.3,0.2c0.1,0.1,0.1,0.1,0.2,0.3
	c0.1,0.2,0.2,0.5,0,0.6c-0.1,0.1-0.1,0.4-0.5,0.7c-0.1,0.1-0.1,0.2-0.3,0.2c-0.1,0,0.1,0.1-0.2,0.3c-0.2,0.2-0.4-0.1-0.4-0.3
	c-0.1-0.2-0.1-0.4,0.2-0.4c0,0,0.2,0.1,0-0.1c-0.1,0-0.1,0-0.2-0.1c0-0.1-0.1,0.1-0.2,0.2c-0.2,0.5,0.1,0.5,0,0.8
	c0,0.1,0,0.2-0.2,0.1c-0.1-0.1,0-0.1-0.2-0.2c-0.1-0.1,0-0.2-0.1-0.2c-0.4,0.1-0.3-0.2-0.5-0.1c0,0,0,0,0,0
	c-0.5,0.2-0.2,0.4-0.4,0.5c0,0-0.6-0.1-0.6-0.4c0-0.2,0-0.2,0.1-0.4c0.1-0.3-0.2-0.1,0.1-0.4c0.1-0.2-0.3-0.4-0.3-0.3
	c-0.1,0.1-0.2,0-0.3,0c-0.2,0,0-0.5,0.1-0.4c0.1,0,0.4-0.3,0.5-0.3c0-0.1-0.1-0.1,0-0.2c0-0.1,0.2,0.1,0.3,0.1
	C6,21.6,6,21.7,6.4,21.8c0.3,0-0.3-0.2-0.4-0.2c0,0-0.2-0.1-0.2-0.2c-0.1-0.1-0.2-0.1-0.3-0.2c-0.1-0.1-0.3-0.2-0.4-0.1
	c0,0.1-0.1,0.1-0.1,0.3c0,0-0.4,0.7-0.5,0.8c-0.1,0.3,0.1,0.2,0.3,0.4c0,0,0.2-0.2,0.3,0.2c0.1,0.1-0.2,0.2-0.2,0.4
	c0,0.2-0.2,0-0.3,0.1c-0.1,0.1-0.3,0.5-0.5,0.3c-0.2-0.1-0.2-0.4-0.2-0.6C3.9,22.9,4,22.6,4.1,22.5L4.1,22.5z M6,22.4
	c0,0,0.1-0.1,0.1-0.1c0,0,0.1-0.1,0.1-0.1c0.1-0.1,0-0.1-0.1-0.1c-0.1,0,0,0-0.1,0C6,22.2,6.1,22.4,6,22.4L6,22.4z M6,22.7
	c0,0.1,0,0.2,0,0.3c0.1,0.1,0.1,0,0.1,0c-0.1-0.1,0-0.3,0.1-0.2c0,0,0.1,0.1,0,0.1c0,0-0.1,0,0,0.1c0,0,0.1,0,0.1,0.1
	c0,0.1,0,0.1,0.1,0.1c0,0,0.1-0.1,0.2-0.1c0,0,0.1-0.1,0.1-0.1c0-0.1,0,0,0,0c0,0,0.1-0.1,0-0.1c0,0-0.1-0.1-0.1-0.1
	c0-0.1-0.1-0.1-0.2-0.2c0,0-0.1-0.1-0.2,0c0,0,0,0-0.1,0.1c0,0-0.1,0.1-0.1,0.1C6.1,22.6,6,22.6,6,22.7L6,22.7z M7.9,22.4
	c0,0.1,0.1,0.1,0,0.2C7.8,22.8,7.8,22.9,8,23c0.1,0,0.1,0.1,0.2,0.2c0.1,0,0.1-0.1-0.1-0.2c-0.1-0.1-0.2,0-0.1-0.2
	c0.1-0.1,0-0.2,0-0.2c0,0,0,0,0-0.1C8.1,22.4,8,22.5,7.9,22.4C7.9,22.4,7.9,22.4,7.9,22.4L7.9,22.4z M7.2,21.8C7,21.9,7,22,7.1,22
	c0,0,0.2,0.1,0.2,0c0-0.2,0.1,0.3,0.3,0c0,0,0.1-0.2,0.1-0.1c0,0,0.1,0,0.2,0.1c0.1,0.1,0,0.2,0.2,0.1c0.1,0,0,0.1,0.1,0
	c0.1,0,0,0,0.1,0c0,0,0.1,0.1,0.1,0.2c0,0,0,0.1,0.1,0.1c0.1,0,0,0.2,0.1,0.2c0.1,0,0.1-0.3,0.1-0.4c0-0.1,0-0.1-0.1-0.2
	c-0.1-0.1-0.1-0.1-0.2-0.2c-0.1-0.1-0.2-0.1-0.3-0.2c-0.1,0-0.2-0.1-0.2-0.1c0,0-0.1,0-0.2,0c-0.1,0-0.3,0.1,0,0.1
	c0.1,0,0.2,0.1,0,0.1c-0.1,0-0.1,0.1-0.2,0.1C7.4,21.9,7.3,22,7.2,21.8C7.3,21.8,7.2,21.8,7.2,21.8L7.2,21.8z M3.8,23.7
	c0,0-0.1,0.2,0.1,0.1c0,0,0.1,0,0.1,0C4,23.7,3.9,23.7,3.8,23.7L3.8,23.7z M6.2,23.6C6.1,23.6,6.2,23.9,6.2,23.6
	C6.3,23.7,6.3,23.6,6.2,23.6L6.2,23.6z M9.4,23.5C9.4,23.5,9.4,23.5,9.4,23.5c-0.1,0.1-0.1,0.1-0.1,0.1c0,0-0.1,0.1,0,0.1
	c0,0,0.1,0,0.1,0C9.4,23.6,9.4,23.5,9.4,23.5C9.5,23.5,9.4,23.4,9.4,23.5C9.4,23.4,9.4,23.4,9.4,23.5C9.4,23.4,9.4,23.4,9.4,23.5
	L9.4,23.5z M9.8,23.3C9.7,23.3,9.7,23.4,9.8,23.3c0,0.1,0,0,0.1,0.2c0,0,0,0,0,0.1c0,0.1,0.1,0.2,0.1,0.3c0,0,0.1,0,0.1,0
	c0-0.1,0,0,0.1-0.1c0-0.1,0-0.1,0-0.2c0-0.1-0.1-0.1-0.1-0.2c0,0-0.1,0-0.2,0C9.9,23.3,9.9,23.3,9.8,23.3L9.8,23.3z M31.6,17
	c-0.1,0.3-0.2,0.7-0.3,0.8c-0.1,0.2-0.2,0.3-0.2,0.5c-0.1,0.2-0.1,0.2-0.3,0.5c-0.2,0.3,0,0.2-0.2,0.4c-0.2,0.2-0.2,0.3-0.2,0.5
	c0,0.2,0,0.3-0.1,0.4c-0.1,0.1-0.2,0.3-0.2,0.3l0.1,0.2C31,20,31.6,17,31.6,17L31.6,17z M20.9,20.6c-0.2-0.1-0.3,0.2-0.1,0.3
	c0.1,0,0.2,0,0.2-0.1c0-0.1,0-0.1-0.1-0.2C21,20.6,20.9,20.6,20.9,20.6L20.9,20.6z M21.5,20.6C21.3,20.7,21.6,20.8,21.5,20.6
	C21.6,20.6,21.6,20.6,21.5,20.6L21.5,20.6z M22.1,20c0,0,0.2,0,0.1,0.1C22,20.3,22.1,20.1,22.1,20C22,20,22,19.9,22.1,20L22.1,20z
	 M23.4,20.3c-0.1,0-0.3,0.1-0.2,0.2c0,0,0.2,0,0.2,0.1c0.1,0,0.3-0.2,0.1-0.3C23.6,20.3,23.6,20.1,23.4,20.3L23.4,20.3L23.4,20.3z
	 M24.5,20.8c0,0,0.1-0.1,0.1-0.1c-0.1-0.1-0.2,0-0.3,0.1c0,0.1-0.2,0.1-0.2,0.3c0.1,0.2,0.2,0.1,0.3,0C24.4,21,24.5,20.7,24.5,20.8
	L24.5,20.8z M24.4,21.1c-0.2,0-0.2,0.2-0.1,0.3c0,0.1,0.3,0.3,0.4,0.2c0,0,0.1-0.1,0-0.2c0,0,0.1,0,0.1-0.2
	C24.7,21.2,24.5,21.1,24.4,21.1L24.4,21.1z M23.7,21.7c0,0-0.1,0.2,0,0.2C23.8,21.9,23.8,21.6,23.7,21.7L23.7,21.7z M24.1,21.5
	c0,0.1,0,0.1,0.1,0.1C24.2,21.7,24.3,21.5,24.1,21.5C24.1,21.5,24.1,21.5,24.1,21.5L24.1,21.5z M23.1,22c-0.1,0-0.1,0.1,0,0.1
	C23.2,22.1,23.2,22,23.1,22L23.1,22z M23.3,21.1C23.2,21.2,23.4,21.4,23.3,21.1C23.4,21.1,23.3,21.1,23.3,21.1L23.3,21.1z
	 M23.1,21.1C23.1,21.1,23.2,21.2,23.1,21.1C23.2,21.1,23.1,21.1,23.1,21.1L23.1,21.1z M14.8,25.9c0.1,0,0.2,0,0.3,0.1
	c0.1,0.1,0.2,0.1,0.3,0.1c0,0,0.3,0.2,0.3,0c0,0-0.1-0.1,0-0.1c0.1,0-0.1,0-0.1,0c0,0-0.5-0.2-0.6-0.2C15,25.8,14.7,25.8,14.8,25.9
	L14.8,25.9L14.8,25.9z M20.5,26.4c0,0-0.1,0.3,0,0.3c0,0,0.1-0.4,0.2-0.2c0,0-0.2,0.3,0.2,0c0,0,0.3-0.1,0.3-0.1
	c0.2,0,0.1-0.3-0.1-0.1c-0.1,0.1-0.1,0-0.1,0c-0.2,0-0.2,0.1-0.3,0.1C20.7,26.2,20.5,26.3,20.5,26.4L20.5,26.4z M17.4,25.8
	c0,0,0.4,0,0.4-0.1c0.1-0.1,0.3,0.4,0.3,0.4c0,0.1,0,0.1,0,0.2c0,0.1,0.1,0.1,0.1,0.2c0.1,0.1,0.1,0,0.1,0c-0.1-0.1-0.2-0.3-0.2-0.4
	c0-0.1-0.2-0.5,0-0.4c0.2,0,0.3-0.1,0.4-0.1c0.2,0,0.4-0.2,0.2-0.2c-0.1,0-0.2,0.1-0.3,0.2c0,0-0.3,0-0.3,0
	C17.8,25.5,17.8,25.8,17.4,25.8L17.4,25.8z M17.3,26.3C17.3,26.2,17.3,26.2,17.3,26.3c0,0.1,0.1,0.1,0.1,0.1c0.2,0,0.1,0.2,0.2,0.1
	c0.1-0.1,0.1,0.2,0.2,0c0,0,0.2,0.1,0.2,0c-0.1-0.1,0-0.1,0.1-0.1c0.1-0.2-0.2-0.2-0.3-0.2c0,0-0.2,0-0.2,0
	C17.6,26.3,17.4,26.4,17.3,26.3L17.3,26.3z M12.8,24c0,0.2,0.4,0.4,0.5,0.5c0,0,0.3,0.1,0.2,0C13.4,24.5,13,24.3,12.8,24
	C12.8,24.1,12.8,24.1,12.8,24L12.8,24z M13.6,24.7c0.1,0.1,0.2,0.2,0.3,0.2c0.1,0,0.4,0.1,0.5,0.2c0.1,0.1,0.2,0,0-0.1
	c0,0-0.4-0.2-0.4-0.2c-0.1-0.1-0.2,0-0.3-0.1C13.6,24.8,13.6,24.8,13.6,24.7L13.6,24.7z M18.8,21.7c0,0.1,0,0.1-0.1,0.1
	c-0.1,0.1-0.1,0.1,0,0.2c0,0.1,0.2,0.2,0.3,0.1c0.2-0.1,0.2,0,0.4-0.1c0.1-0.1,0.5-0.2,0.6-0.3c0.1-0.1,0.1-0.2,0.1-0.4
	c0-0.1,0-0.2,0-0.3c0,0,0.1-0.3,0-0.3c-0.1,0-0.2,0-0.3,0c0,0-0.3,0.1-0.3,0.1c-0.1,0-0.2,0.1-0.2,0.2c-0.1,0.1-0.1,0.1-0.2,0.2
	c0,0,0,0-0.1,0C18.9,21.4,18.9,21.6,18.8,21.7C18.9,21.6,18.8,21.7,18.8,21.7L18.8,21.7z M20.4,21.7c0,0-0.1,0.1-0.1,0.2
	c0,0.1,0,0.1,0,0.1c0,0.1,0,0.1,0.1,0.1c0.2,0,0.1,0,0.2-0.1c0.1,0,0.1-0.1,0.1-0.2c-0.1-0.1,0-0.2-0.1-0.3
	C20.6,21.4,20.4,21.6,20.4,21.7L20.4,21.7z M20.3,22.3C20.2,22.3,20.2,22.3,20.3,22.3c-0.1,0.1,0,0.2,0.1,0.2c0,0,0.1,0,0.1-0.1
	C20.4,22.3,20.3,22.3,20.3,22.3L20.3,22.3z M20.2,21.9C20.1,21.9,20.2,22,20.2,21.9C20.3,21.9,20.2,21.9,20.2,21.9L20.2,21.9z
	 M20,22.9c0,0-0.1,0.2,0,0.2c0,0,0.1-0.1,0.1-0.2C20.1,22.9,20,22.9,20,22.9L20,22.9z M19.3,22.7c-0.1,0-0.2,0.1-0.2,0.2
	c0,0.1-0.1,0,0,0.2c0.1,0.1,0.2,0,0.2-0.1C19.3,22.9,19.4,22.8,19.3,22.7C19.4,22.7,19.3,22.7,19.3,22.7L19.3,22.7z M18.9,22.8
	c0,0,0-0.3-0.1-0.1c-0.1,0.1-0.2,0.2-0.1,0.3c0.1,0.1,0.1,0.2,0.3,0.2c0,0,0-0.1,0-0.2C19,22.9,19,22.8,18.9,22.8L18.9,22.8z
	 M18.3,21.9c-0.1,0-0.1-0.1-0.2-0.1c-0.1,0-0.1,0.1-0.2,0.1c-0.1,0.1-0.1,0.1-0.2,0.2c0,0.1,0,0.2,0,0.3c0,0.1,0,0.3,0.1,0.4
	c0,0.1,0.2,0.2,0.3,0.2c0.1,0,0.1,0.1,0.3,0c0.1,0,0.3,0,0.3-0.2c0.1-0.2,0-0.1,0.1-0.2c0.1-0.1-0.1-0.4-0.1-0.6
	c0-0.1-0.1-0.3-0.2-0.2C18.3,21.9,18.3,21.9,18.3,21.9L18.3,21.9z M18.1,22c-0.1,0-0.1,0.2-0.1,0.3c0,0.1,0.1,0.2,0.1,0.1
	c0-0.1,0-0.2,0.1-0.3C18.2,22.1,18.2,22,18.1,22C18.1,22,18.1,22,18.1,22L18.1,22z M21.5,23.1c-0.1,0.1-0.4,0-0.3,0.4
	c0,0,0.1,0.2,0.2,0.2c0.2,0,0.2-0.1,0.3-0.3c0,0,0,0,0-0.1c0-0.1,0.1-0.2,0-0.2C21.7,23.1,21.7,23.1,21.5,23.1
	C21.6,23.1,21.6,23.1,21.5,23.1L21.5,23.1z M24,22.2c-0.1,0-0.1,0-0.1,0.1c0,0,0,0.1,0.1,0.1c0,0,0.1,0.2,0.2,0.2
	c0,0,0.1-0.1,0.1-0.1c0,0,0.1-0.1,0.1-0.1c0-0.1,0-0.2-0.1-0.2C24.2,22.2,24.1,22.2,24,22.2L24,22.2z M15.2,22.4
	C15.2,22.4,15.2,22.4,15.2,22.4c-0.1,0-0.1,0-0.2,0c0,0-0.1,0.1,0,0.2c0,0,0,0.1,0.1,0.2c0,0,0.1,0,0.1,0c0-0.1,0,0,0.1-0.1
	c0,0,0.1-0.1,0.1-0.1c0,0,0.1-0.1,0.1-0.1c0,0,0,0,0-0.1c0,0-0.1,0-0.1,0C15.5,22.4,15.3,22.4,15.2,22.4
	C15.2,22.4,15.2,22.4,15.2,22.4L15.2,22.4z M15.3,22.3c0-0.1-0.1-0.1-0.1,0C15.2,22.3,15.3,22.4,15.3,22.3
	C15.3,22.3,15.3,22.3,15.3,22.3L15.3,22.3z M15.6,22.1c-0.1,0-0.1,0.1-0.1,0.2c0,0.1,0.1,0.1,0.1,0.1c0,0,0,0,0.1,0c0,0,0-0.1,0-0.1
	C15.8,22.2,15.6,22.1,15.6,22.1L15.6,22.1z M15.9,22.1c-0.1,0,0,0.2,0,0.1C15.9,22.2,15.9,22.1,15.9,22.1
	C15.9,22.1,15.9,22,15.9,22.1L15.9,22.1z M6.8,19.7c-0.1-0.1-0.3-0.3-0.4-0.2c-0.1,0-0.2,0.1,0.1,0.1c0.1,0,0.3,0.1,0.1,0.1
	c-0.1,0-0.2,0.1-0.1,0.2c0,0-0.1,0.1-0.1,0.3c0,0.1-0.2,0.1-0.2,0c0,0,0,0,0,0c-0.1,0-0.1,0-0.1,0.1c0,0,0.1,0.1,0.2,0.2
	c0,0.1,0.1,0.2,0.1,0.1c0-0.1,0.3-0.2,0.3-0.2c0,0,0,0.3,0.2,0.1c0.1-0.1-0.1-0.1,0-0.2c0,0,0.1,0.1,0.3-0.1c0,0,0.2,0,0.2,0.1
	c0.1,0.2,0.3,0.1,0.4,0.2c0.1,0.1,0.1,0.2,0,0.2c0,0,0.1,0.1,0.1,0c0,0,0-0.2,0.3,0c0,0,0-0.1,0.1,0c0.1,0.1,0.2-0.1,0.3,0
	c0.1,0,0.4,0,0.5,0c0,0,0.3-0.2,0.3-0.3c-0.1,0-0.1,0.1-0.2,0c0-0.1-0.1,0.1-0.1-0.1c0-0.1-0.1,0-0.2,0c-0.2,0-0.1,0-0.1-0.2
	c0-0.1-0.4-0.1-0.2-0.2c0.1-0.1,0.3,0.3,0.3,0.2c0,0-0.1-0.1-0.1-0.2c0-0.2,0.3,0,0.4,0c0.1,0,0.2,0,0.2,0c0,0,0-0.2-0.3-0.1
	c0,0-0.1-0.1-0.2,0c0,0-0.2,0-0.4,0c-0.1,0-0.3,0-0.4,0c0,0-0.2,0-0.2,0c-0.1-0.1-0.3,0.2-0.3,0.1c0,0-0.1-0.2,0-0.3
	c0,0,0.1-0.2,0.1-0.2c0.1-0.2-0.1-0.3-0.3-0.2c-0.1,0.1,0,0.1-0.3,0.3c0,0-0.3,0-0.2,0.1c0,0,0.1,0,0.1,0.2c0,0-0.1,0.1-0.1,0.1
	C6.9,19.7,6.9,19.7,6.8,19.7C6.9,19.8,6.9,19.7,6.8,19.7L6.8,19.7z M6.1,19.9c-0.1,0-0.1,0-0.2,0.1C5.9,20.1,6.4,20,6.1,19.9
	C6.1,19.9,6.1,19.9,6.1,19.9L6.1,19.9z M5.8,19.8C5.6,20.1,6.1,19.7,5.8,19.8C5.8,19.8,5.8,19.8,5.8,19.8L5.8,19.8z M9.1,13.8
	c0.2,0.2,0.1,0.3,0.1,0.5C9.2,14,9.1,13.8,9.1,13.8L9.1,13.8z M10.1,16.9C10.1,16.9,10.2,17,10.1,16.9c0.2,0.1,0.1,0.1,0.1,0.1
	c0,0.1,0,0.2,0,0.2c0,0-0.1,0.1-0.1,0.1c-0.1,0-0.2-0.1-0.2-0.2c0-0.1,0-0.1,0.1-0.2C10.1,17.1,10,17,10.1,16.9L10.1,16.9z
	 M9.9,17.5C9.9,17.5,9.9,17.5,9.9,17.5C9.9,17.6,9.9,17.6,9.9,17.5c0,0.1,0,0.1,0,0.1C9.7,17.7,9.8,17.5,9.9,17.5L9.9,17.5z
	 M18.7,10.2c0-0.1,0-0.1,0-0.2c0-0.1,0.1-0.1,0.1-0.1c0,0,0.1,0,0.1,0.1c0,0.1,0.2,0.1,0,0.2c-0.1,0,0,0.2-0.1,0.3
	c0,0,0,0.3-0.2,0.1C18.6,10.5,18.7,10.4,18.7,10.2C18.7,10.3,18.7,10.2,18.7,10.2L18.7,10.2z M20,10.9C20,10.9,20,10.8,20,10.9
	c0.2-0.2,0.2-0.2,0.3-0.3c0,0,0.2,0,0.2,0c0,0,0.1,0,0.1,0c0,0,0.1-0.1,0.2,0c0.1,0.1,0,0.2,0,0.2c-0.1,0.1-0.2,0.2-0.2,0.3
	c0,0.1-0.1,0.2-0.2,0.2c0,0-0.2,0.1-0.2,0.1c0,0-0.1,0.1-0.2,0.1c-0.1,0.1-0.2,0-0.2-0.1c0-0.1,0-0.2,0-0.2
	C19.9,11.2,19.9,10.9,20,10.9L20,10.9z M24.1,9.3c0.1,0.1,0.2,0,0.2,0.3c0,0.1,0,0,0,0.1c0,0,0.1,0.1,0,0.2c-0.1,0-0.2-0.1-0.1-0.2
	c0,0,0-0.1,0-0.1C24.1,9.5,24.1,9.3,24.1,9.3L24.1,9.3z M22.8,9.4c0,0,0.4,0,0.3,0.1c0,0.1-0.1,0.1-0.2,0.1
	C22.8,9.5,22.7,9.5,22.8,9.4C22.7,9.4,22.8,9.4,22.8,9.4L22.8,9.4z M24.2,8.6C24.2,8.6,24.2,8.6,24.2,8.6c0.1,0.1,0.1,0.3,0,0.3
	c-0.1,0,0-0.1-0.1-0.2C24.1,8.7,24.1,8.6,24.2,8.6L24.2,8.6z M23.9,8.2c0,0.1,0,0.2,0.1,0.3c0,0,0.2,0.1,0.2,0.1c0,0.1-0.2,0-0.2,0
	C23.9,8.5,23.7,8.3,23.9,8.2C23.8,8.2,23.9,8.1,23.9,8.2L23.9,8.2z M24,7.7C24,7.7,24.1,7.7,24,7.7c0.1,0.1,0.1-0.1,0.2-0.1
	c0,0,0,0.1,0,0.1C24.1,7.8,24.1,7.7,24,7.7c0,0.1-0.1,0.2-0.2,0.2C23.8,7.9,24,7.7,24,7.7L24,7.7z M24.5,7.7
	C24.6,7.8,24.5,7.8,24.5,7.7C24.6,7.8,24.8,8,24.6,8c0,0-0.1-0.1-0.2-0.1C24.4,7.8,24.3,7.7,24.5,7.7L24.5,7.7z M24.7,8
	C24.7,8,24.7,8,24.7,8c0.1-0.1,0.1,0.1,0,0.2C24.6,8.3,24.7,8,24.7,8z"/>
</svg>
