<?xml version="1.0" encoding="utf-8"?>
<!-- Generator: Adobe Illustrator 28.1.0, SVG Export Plug-In . SVG Version: 6.00 Build 0)  -->
<svg version="1.1" id="图层_1" xmlns="http://www.w3.org/2000/svg" xmlns:xlink="http://www.w3.org/1999/xlink" x="0px" y="0px"
	 viewBox="0 0 700 700" style="enable-background:new 0 0 700 700;" xml:space="preserve">
<style type="text/css">
	.st0{fill-rule:evenodd;clip-rule:evenodd;}
</style>
<g id="Tren">
	<path class="st0" d="M82.6,444.6c-0.5,0.9-0.9,1.8,0.7,3c1.1,0.8,2.5-0.4,3-1.4c1.2-2,0.9-4.1-1.6-4.1c-0.5,0-0.9,0.2-1.1,0.5
		L82.6,444.6L82.6,444.6z M187.5,305.9c0,0-0.9-5.5,4.5-6.3L187.5,305.9L187.5,305.9z M195.9,298.1c0,0,3.9-2.8,7.2-0.3L195.9,298.1
		L195.9,298.1z M210.4,302.5c0,0,2.7,2.7,2.4,5L210.4,302.5L210.4,302.5z M212.8,314.4c0,0,1.6-2.2,0.8-5.2L212.8,314.4L212.8,314.4
		z M184.2,324.7c0,0,0.4,5.1,5.3,5.6L184.2,324.7L184.2,324.7z M195.3,331.4c0,0,5.9,1.9,9.7-2.9L195.3,331.4L195.3,331.4z
		 M136.6,483.2c0,1.6-3.4,0-2.4,2.8c0.2,0,0.7,1.1,2.2,0.1c1-0.7,2.1,1.3,2.6,1.3c1.1,0,2-2.7,1.5-3.3c0,0-0.1-0.9-0.7-1.6
		c-1.3-1.5-1.1-0.4-2.1,0.3c0,0-1.2,0.1-1.3,0.8L136.6,483.2L136.6,483.2z M199.5,486.4c-0.1,0.7,0.1,2.5-0.1,3.5
		c-0.1,0.4,0,4.3,0.1,5c0.1,0.5-0.1,0.7,0.6,0.6c0.3,0,2.8-1.4,3-1.7c0.8-1.1,0.6-0.4,1.1-2.1c0.3-1,0-1.9,0.4-3.1
		c0.3-1.3-0.5-1.6-1.4-2.1c-1-0.5-1-0.4-2.2-0.4c-0.9,0-0.8-0.2-1.5,0.3L199.5,486.4L199.5,486.4z M448.6,443.8c-0.6,0.3-4.4,3-4,4
		c1.1,2.6,4,3,6.4,2.1c4-1.5,0.8-3,0.8-4.2c0-1.6-2.4-2.8-3.7-1.5L448.6,443.8L448.6,443.8z M402.8,451.6c-3.2,1.6,0.7,3.7,1.3,2.1
		c1.1-3.2-0.9-1.9-1.9-1.9L402.8,451.6L402.8,451.6z M187.5,305.9l4.5-6.3C188.2,301.3,187.5,305.9,187.5,305.9L187.5,305.9z
		 M195.9,298.1l7.2-0.3C200.7,296.4,195.9,298.1,195.9,298.1L195.9,298.1z M210.4,302.5c0,0,1.4,3.7,2.4,5L210.4,302.5L210.4,302.5z
		 M213.6,309.2l-0.8,5.2C213.1,312.2,213.6,309.2,213.6,309.2L213.6,309.2z M204.9,328.6c0,0-4.7,3.6-9.7,2.9L204.9,328.6
		L204.9,328.6z M184.2,324.7l5.3,5.6C186.6,328.8,184.2,324.7,184.2,324.7L184.2,324.7z M192,482c11.3-10.3,12.4-19.8,6-27.3
		c-2.9-3.4-7.3-6.3-13-8.6c-3-1.2-3.6-1.1-5.7-1.3c-2.1-0.2-1.4-0.8-4.3-4.8c-2.9-4-2.1-4.4-2.1-4.4s2.2,1.3,4.8,2.7
		c2.6,1.3,3.1,0.1,5.9,0.6c2.8,0.4,1.3,0.6,3.8,0.8c2.4,0.2,2.8,0.3,6.6,1.7c3.8,1.3,6.6,1.8,10.3,3c3.8,1.2,2.6,1.9,4,2.6
		c1.4,0.7,3.4,4.1,5.1,7.8c1.7,3.7,10.2,12.9,10.2,12.9s-2.5,2.7-2.7,3.3c-0.2,0.6,0.7,2.1,3.1,1.9c2.4-0.2,2.2,1.7,3.2,3
		c1,1.3,2.8,2.2,6.4,3.2c3.6,1,3.3,1.9,6,2.6c2.7,0.7,6.1,3.8,7.3,5.4c1.3,1.6,1.3,2.9,0.8,3.2c-0.5,0.3,1.6,1.7,2.8,1.8
		c1.2,0.1,1.3,1,2.1,1.4c0.8,0.4,1.9,0.3,3.5,0.1c1.6-0.2,2.7,0.2,4.1,0.9c1.4,0.7,2.9,2.3,4.3,3.6c1.4,1.2,2.5,2.4,3.7,3.7
		c1.2,1.3,0.4,1.2,0.1,2.7c-0.3,1.4,0,3.2,0.6,4.4c0.6,1.2,1.2,4,2.8,6c1.6,2,3.3,2.7,5.9,3.8c2.6,1.1,3.9,6.8,5.1,8.4
		c1.2,1.7,6.4,3.9,8.7,5.8c2.2,1.9,4.4,1.9,8.4,2.3c4,0.4,4.3,0.6,8.2,1.9c3.9,1.3,6.9,1.4,8.6,2.2c1.7,0.8,5.2,1,7,0.2
		c1.8-0.8,4.1-0.7,6.7-0.1c2.6,0.6,2.2,0.8,5,1c2.8,0.2,2,0.6,2.7,1.8c0.7,1.2,3,1.8,6,1.7c3-0.1,1.1,0.3,2.8,2.3
		c1.7,2,2.1,0.2,4.9-0.6c2.8-0.8,2.4-0.8,5.3-2.2c2.9-1.4,4.3-0.3,7-1.3c2.7-1,4.7-0.7,5.7-1.7c1-1,2.4-1.4,4-2
		c1.6-0.6,1.3-1.9,0.4-2.9c-0.9-1-0.4-1.8,1-2.8c1.4-1,6.3-0.8,7.6-0.8c1.2,0,2.3-1.7,2.7-3.6c0.3-1.9,1.8-2.3,4-5.8
		c2.2-3.4,1.3-1.1,2.6-2.4c1.2-1.3,2.6-0.3,4.1,0.2c1.6,0.6,1.3,2,2.1,2.1c0.8,0.1,1.4-1.4,2.7-2.3c1.2-0.9-0.1-2.2-1.3-2.6
		c-1.2-0.3-0.8-2,0.2-3.1c1-1.1,1.3-1.2,3.2-1.9c1.9-0.7,3-0.4,4.8-1.4c1.8-1,2.9-2.1,9.2-3.3c6.3-1.2,12.8-5.6,12.8-5.6
		c-0.4,1.1-3,3-7,4.9c-4,1.9-6.9,3.2-9.3,3.7c-2.4,0.4-3.4,2.2-1.4,3.2c2,1,4.3-1.7,7-2.4c2.7-0.8,1.8,0.1,4.7,0.6
		c2.9,0.4,1.8,0.9,4.8,2.7c3,1.8,4.1-0.4,4.1-0.4s2.2-2.6,2.4-3.8c0.2-1.2,0.8-2.3,1.7-4.4c0.9-2.1,2.2-1.8,3.8-2.3
		c1.6-0.6,4.1-1.8,5.2-2.4c1.1-0.7,1.7-1.7,1.4-3.8c-0.2-2.1,1.1-3.3,1.2-4.7c0.1-1.3,2-1.8,3.1-3.2c1.1-1.4,4-2,6.4-3.4
		c2.4-1.4,5.9-1.3,10.6-2.6c4.7-1.2,2.2-1.6,4.4-3.4c2.2-1.9,2.1-2.8,4.8-5.9c2.7-3.1,4.1-3.8,4.1-3.8s3.9-0.3,6.4-1.8
		c2.6-1.4,2.6-2.1,4.3-3.4c1.8-1.3,4.4-3.8,4.4-3.8s2.2-0.9,4.9-1.4c2.7-0.6,3.2-1,4.3-2.6c1.1-1.6,0.9-2.1,1.8-3.4
		c0.9-1.3,1.6-1.9,2.8-3.7c1.2-1.8,2.6-2.3,4.9-4.1c2.3-1.8,11.2-8.7,11.2-8.7c-20.7,48-91.6,118.7-186.7,118.7
		s-150.7-59.1-150.7-59.1c0.8-7.2-5.1-7-5.1-7s3.4-3.2,3.7-5.5c0,0,2.1-0.9,2.8-1.9c0,0,2.1,3.3,5.4,6.4v5.3c0,0-0.1,1.6,1.1,3.1
		c1.2,1.6,3.4,1.4,4.7,0.8c1.2-0.6,5.5-3.7,5.5-6.7c0-3.1,0-6.7,0-6.7l2.8-2.9l0.8,0.3c0,0,1.6,4,1.9,5.1c0.4,1.1,1.7,2,3.1,2
		s6.1-2.5,6.1-7.1c0-4.6-3.1-8.3-6.9-7.3c-3.8,1-4.1-1.1-7.1,2.2c0,0-1.3-1.4-4.8,0.8c-3.6,2.2-3.2,2.2-3.2,2.2s-0.9,1.2-0.6,2.6
		c0,0-3.6,0.8-3.2,4.5C196.3,487.2,192.8,484.2,192,482L192,482z M210.5,420.1c-3.4,0.3-0.4,0.9-2.7,2.9c-0.1,0.1-0.8,3.1-1.3,1.5
		c-0.7,0,0.1,2-1.8,3c-0.8,0.4-1.5,2.1-0.5,3c2.1,1.9,0,5.8,0.1,6.5c1.4,0.3-3.6,4,3.2,3.1c1.5-0.2,2.2,2.8,3.2,4.5
		c5.6,9.3,6.8,16.9,17.2,23.2c4,2.4,5,3,9.7,3.6c2.7,0.3,6.2-0.8,8.3,0.7c2.9,2.1,5.3,1.3,6,4.6c0.4,1.9,1.3,7.8,3.6,8.3
		c1.6,0.3,2-1.5,6.1-1.9c2.9-0.3,6-1.7,8.2-3.5c1.4-1.1,2.4-1.6,2.2-3.3c-0.5-4.2,0.6-3.3,1.3-6.7c0.7-3.5-0.6-2.3,0.2-6.5
		c0.5-2.2-2.1-3,1.3-5.2c0.1-0.1,0.1-1.1,0.5-1.1c1.6,2.7,2.5,2,5.2,1.4c2.1-0.4,3.7-3.9,4.2-4c0.1-0.7,0.9,2.7,2.4,3.4
		c2.4,1.2,3.5,2.4,6.8,0.1c1.3-0.9,7.3-1.4,8.9-0.7c0.3,0.1,9.7,0.8,10.5,0.1c0.4-0.4,2.9-0.4,3.2-3.9c0.2-2.2,1.9-0.6-0.2-5.6
		c-0.5-1.2,0.1-0.1-0.8-1.5c-0.4-0.6-0.9-2.4-1.2-3.2c-0.5-1.4-0.6-1.9-1.6-2.7c0.9-0.5,1.2,1.2,3.9,0.1c1.6-0.6,5.3-0.6,7.2-2.3
		c0.8-0.7,2.4-0.6,4-3.3c1.4-2.4,6.6-1.1,8.7-5.4c0.8-1.6,7.1,0.2,3.3-3.8c-1.4-1.5,2.8-3,3.8-4.4c0.2-0.3,2.5-1.6,3.9-3.6
		c1.8-2.5,2.3,1.3,3.3,1.3c3.6,0,1.4-1,3.1,0.2c0.2,0.1,1.2,1.8,1.1,1.9c1.4-0.3,0.5-0.9,3-1.8c0.5-0.2,6.3-3.1,7.2-3.6
		c2-1.1,8.3-4.4,10.1-4.9c2.1-0.7,14.1-10.8,19.1-13c1.7-0.8,3.2-2.6,6.5-3.6c2.8-0.9,19-8,21.2-9.3c1.7-1,9.3-4.3,11.2-4.4
		c1.1-0.1,10.1-4.7,10.6-5.6c0.7-1.2,2.9-0.6,5.6-6.8c0.4-1,1.2-2.5,1.1-3.6c5.5,0.6,11.3-3.2,16.7-3.9c0.9-0.1,8.3-3.6,11.2-3.5
		c2.9,0.1,3.8,0.1,6.4-0.9c0,0,12,1.1,16-8.8c0,0,0.9,0.7,4.1-0.9c3.2-1.6,5.1-2.7,5.1-3.6c0,0,13.2,1.4,16.8-8.7
		c0,0,2.4-0.2,3.9-0.7c1.5-0.6,5-2.4,5.4-3.6c0,0,15.4,3,19.9-8.7c0,0,9.9-3.8,11.1-3.9c1.2-0.1,5.1-1.7,6.3-2.2
		c1.2-0.6,9.4-1.4,12.2-9.1c0,0,1.2,0.6,3.4-0.4c2.2-1,4.4-3.1,4.4-3.1s16.6,0.7,18.1-10.2l10.1-4.8c0,0,1.2,2,3.6,0.8
		c2.4-1.2,6.8-3.5,6.8-3.5s1.8,0.5,4.3-0.8c2.6-1.3,28.1-14.4,28.1-14.4s2.2,0.7,4.3-0.8c2.1-1.6,23.8-13.2,25.7-14.6
		c1.8-1.4,1.5-2.2-1.1-1.3c-2.6,0.9-7.1,0.8-8.6,0.3c-1.4-0.5-16.8-3.8-19.3-4.4c-2.5-0.6-5.7-0.2-5.6-2.4c0.1-2.3,0.1-2.9,1.1-4.1
		c1-1.2,1.7-1.8,1-2.1c-0.7-0.3-1.1-1-2.5,0c-1.4,1,0.4,1.3-2.2,0.9s-3.1-0.7-3.5,0.4c-0.4,1.1-0.3,2.6-1.3,3.2
		c-1,0.6-2.8,1.9-3.5,2.4c-0.7,0.4-2.2,1-3.2,1.3c0,0-0.9-0.7,0.4-1.1c1.4-0.4,2-0.6,1.9-1.3c-0.1-0.8-1.6-0.6-2.4-0.5
		c-0.8,0.1-3.2-0.1-4.1,0.4c-0.9,0.5-2.3,0.9-2.3,0.9s-1.1-0.8-1.9-0.9c-0.8-0.1-1.3,0.2-1.3,0.2s-1.7,0.3-2.1,0.8
		c-0.4,0.5-0.9,1.1-1.6,1.3c-0.7,0.3-1.7,0.9-2.7,0.9s-1.1,0.1-2.2-0.2c-1.1-0.3-2.2-1.2-2.2-1.2s6.5-7.9,6.9-11.2
		c0.4-3.3-1.7-2-1.7-2s-3.3,3.6-7.9,6.3c-4.6,2.7-11.9,6.1-14.7,6.9c-2.7,0.8-4.9,2.7-5.8,4c-0.9,1.3-1.7,1.6-1.7,1.6
		s0.6-1.2,0.1-2.1c-0.5-0.9-1.8-1-2.3-1.1c-0.5-0.1-0.8-1.1-0.8-1.1s2.3-1.3,3.4-2.4c1.1-1.1,2.5-2.4,1.7-3.6
		c-0.8-1.2-2.3-2.9-4.1-3.3c-1.8-0.4-3.4-0.6-4.1-0.7c-0.7-0.1-4.6-6.8-4.6-6.8s0.2-1.3-0.6-2.5c-0.7-1.2-3.7-6.4-3.7-8.7
		s-0.2-4.9-1.6-4.6c-1.4,0.3-4.1,2.3-4.1,2.3l-4.1-5.6c0,0,2.2-10.2,1.7-11.9c-0.5-1.7-3.7,0.4-6.2,1.8
		c-2.6,1.4-43.4,20.9-43.9,21.5c-0.4,0.6-6.2,6.8-8.6,9.3c-2.4,2.5-13,9.4-11.8,11.8l-42.8,25.3c0,0,0.1-1.8,0.1-2.7
		c0.1-0.8-0.6-2.6-1.4-2.5c-0.8,0.1-8.1,2.9-9.6,4.2c-1.6,1.3-13,6.8-15.7,8.3c-2.7,1.4-8.3,3.9-9.5,4.3c-1.2,0.4-1.8,0.7-1.8,0.7
		s-0.7-1-1.4-0.8c-0.7,0.2-0.8,0.2-1.6,0.8c-0.8,0.7-1.4,0.9-2.1,1.4c-0.7,0.4-1.9,0.8-1.9,0.8s0.9-2.3,0.2-3.3
		c-0.7-0.9-3.3-4.1-3.6-5s-0.6-1.8-2-1.3c-1.4,0.6-14.4,6-15.3,6.8c-0.9,0.8-1.2,0.8-2.2,2.6c-1,1.8-4.9,8.1-5.5,8.8
		c-0.6,0.7-1.2,3.1-0.1,4.1c1.2,0.9,2,2.7,1.9,3.6c-0.1,0.9-1.2,1.4-2.1,1.5c-0.9,0.1-1.8,1.8-0.7,3.4c1.1,1.6,1.8,3.3,1.8,3.3
		s-9.5,3.6-12.2,5.1c-2.7,1.5-54.2,26.6-59.9,30.1c0,0-10-0.1-16.4,1.7c-6.4,1.8-38.2,18.6-39.3,19.1c-1.1,0.6-12.3,6.2-12.3,6.2
		s-3-1.7-5.1-0.3c-2,1.3-11.6,9.6-15.3,10.7c-3.7,1.1-13.9,9.7-4.6,16.3c0,0,2,1.4,0.7,2c-1.2,0.6-2.3,0.3-2.9,1
		c-0.6,0.6-2.4,2.1-1.7,3.3c0.7,1.2,1.7,7.2,1.7,7.2s1.1,1.3,3.1,0.8c2-0.5,1.8-0.6,3.4-0.8c1.7-0.2,2.9-0.4,2.9-0.4
		s-0.6,2.2-1.8,2.6c-1.3,0.4-2.5,0.1-2.7,0.6c-0.2,0.6-1.3,2.3-1.9,2.6c-0.6,0.3-2.1,0.2-3.4,0.3c-1.3,0.1-3.6,0.4-4.4,0.4
		C219.1,417.9,215.9,420.8,210.5,420.1L210.5,420.1z M211,421.3c-0.7,0.7-1.4,1.1-1.7,2c-0.5,1.7-0.3,0.4-0.1,2.2
		c0.1,1.1-0.7,1.5,0.3,2.6c0.3,0.4-0.1,2.5,1.3,1c0.3-0.3,0.9-0.2,1.2,0c0.8,0.6,0.4,0.1,1.1,1c0.1,0.1,1-0.2,1.1,1.2
		c0,0.5,1.7,2.2,2.4,2.4c0.6,0.2,2.4,0.9,1.5-0.7c-0.3-0.6-0.2-0.7,0.9-0.6c0.6,0,0.4,1.3,1.6,0.8c0.2-0.1,2.3,0.3,3,0.3
		c0.3,0,1.3,0.6,1.5,1.1c0.6,1.4,3,2.6,3.6,3.7c0.2,0.4,1.2,1.3,1.8,0.5c0.5-0.8,1.4-1.1,2.3-0.7c1.6,0.6,2.9,0.1,4.4,2
		c0.4,0.5,1.8,0.8,2.4,0.7c0.7-0.1,0.5-0.1-0.2-0.6c-0.3-0.3-0.5-1.1,0-1.1c0.6,0,1.4-1.4,1.1-2.5c-0.6-1.6-1.3-2-3.1-1.8
		c-1.1,0.1-1.4,1.5-0.3,2.5c1.6,1.5-0.5,2.1-0.9,1c-0.4-1.1-0.2-2.8-2.2-2.3c-1.4,0.3-1-1.5,0.5-2.2c1.7-0.8-0.1-2.1,2.2-0.5
		c0.7,0.5,3.1-0.2,4.1,0c0.8,0.1,1.8-0.1,2.9,0.2c1.5,0.4,2,0.4,3.5,1.2c0.9,0.5,1.9-0.2,3.8,0.7c0.4,0.2,5.2,2.2,3.8,0.3
		c-0.6-0.8-2-1-2.9-1.2c-0.8-0.2-1.5,0.4-1-0.8c0.3-0.8-2.5-1.7-3.3-2.7c-0.3-0.4-3.2-2.4-3.7-2.6c-2.4-1-3.6-2.1-5.6-3.7
		c-0.2-0.2-3.6-0.2-4-1.3c-0.5-1.3-3.8-1-3.5,0.5c0.1,0.5,0.6,0.1-0.5,0.7c-0.8,0.5,0.5,1.6,1.6,1.8c1.5,0.2,2,1.2,1,2.4
		c-0.1,0.1-1.5,1.3-1.6,1.3c-0.6,0-0.5-1.5,0.4-1.5c0.1,0,1-0.6,0.2-1.2c-0.7-0.5-1.9,0.3-1.9,1.3c0,0.5-0.5,1.1-0.6,1.3
		c-0.6,0-2.1,1.3-2,0c0-0.5-1.4-1.1-2.1-0.7c-1.2,0.6-4,0.6-2.1-1.1c0.3-0.3-0.2-0.5-0.8-0.2c-0.7,0.4-2.3,0.4-2.9-0.5
		c-0.9-1.3-0.5-0.8-2.2-1c-1.8-0.2-2.2,0.3-1.5-1.7c0.4-1.2-2.9-0.8-1.6-2.7c0.5-0.8,1.9,0,2.4,0.7c0.5,0.8,2.1-0.1,3.9,0.7
		c0.3,0.2-0.4,1.6-0.4,1.8c0,0.4,1.1,2,1.6,1.4c0.7-0.9,0.5,0.2,0.9-1.5c0.1-0.5,0.8-0.7,0.8-1.3c0.9,0,2,1.5,3.6,0.5
		c0.8-0.5,0.3-1.7-0.7-2c-0.8-0.3-0.3-0.8-1.5-0.3c-1.3,0.5-1.8-0.4-3.1-1c-1.1-0.5-1.5-0.6-2.7-0.9c-0.8-0.2-0.9-0.5-1.9,0.2
		c-0.7,0.5-0.3,1.1-1,1c0,0-1.8,0-1.8,0c-1.6,0.5-0.7,1.9-1.9,1.2c-0.7-0.4,0.2-0.8-1.2-1.1C211.3,421.4,211,421.1,211,421.3
		L211,421.3z M249.8,454.8c-0.3-0.3-1.8-2.3-1.2-0.2c0.1,0.6-1.2,1.5-1.7,1.6c-0.4,0-1.5,1.3,0.6,1.8c1.4,0.4,0.6,1.6,2.3,1.2
		c0.8-0.2,0.9,1.2-0.5,1.4c-1.4,0.2,0.4,2.6-1,2.9c-1,0.2-0.5,0.2-1.7-0.1c-1.6-0.4-0.5,1.4,0.3,2c1.4,1.1,1.3,1.9,2.3,0.2
		c0.5-0.9,2.8,0.2,3.4,1.1c0.4,0.5,2.5,2,3.4,1.7c0.3-0.1,1.7-0.2,2.2-0.6c0.8-0.5,2.3-1,3.3-1.5c2.8-1.4,3-0.5,5.1-1
		c0.2,0,1-1.2,1.2-1.5c1.1-1.3,2-4.1,1.9-5.8c-0.1-1.2-1.8-3.7-3.4-3.1c-1.2,0.4-0.2-2.3-0.2-2.8c0-1.6,0.6-2-0.7-3.7
		c-1.1-1.4-0.1-2.3-3-2.8c-0.8-0.1-5,0-6,0.2c-1.5,0.3-2.1-0.4-2.9,2.1c-0.4,1.3-2.3,1.6-0.5,2.8c0.4,0.2,1.7-0.1,0.5,2
		c-0.6,1-0.5,1.6-1.8,1.6C250.8,454.6,251.1,455,249.8,454.8L249.8,454.8z M287.8,429.9L287.8,429.9c0.1-0.1,0.2,0,0.5-0.3
		c0.4-0.6,2,1.2,2.5,0.5c0.6-0.8,3.3,3.1,3.7,3.9c0.6,1.2,2,4.9,2,6.1c0,1.9,0,1.6-0.8,3.2c-0.3,0.7-1.1,1.3-1.8,1
		c-0.9-0.4-1.3,0.9-1.4,1.6c0,0.7,5.5,1.1,6.3,0.6c1.2-0.8,0.8-1.3,2.3-1.9c0.9-0.3,2.6,1,2.9,1.5c1,1.4,3.4,1.8,3.1,3.9
		c-0.1,0.8-0.5,0.7-1.1,1.2c-0.6,0.5-3.3,0.3-3.2,1c0.3,1.2-0.1,0.7-0.5,0.9c-1.8,1.3-0.4,1.1,1.1,1.9c0.7,0.4,2.2,0.2,2.7,0
		c1.6-0.7,3.6,0.3,4.4,0.3c2.6-0.1,1.8-0.8,2.3-1.6c1.2-2.3,0.9-5.1-0.4-7.3c-0.7-1.2-1.3-2.7-1.7-4c-0.9-2.8-1.1-3.3-3.1-5.5
		c-2.3-2.4-3.8-2.8-6.1-4.5c-1.4-1-4.3-1.9-5.3-2.6c-1.4-0.9-4.7-1.2-5-1.5c-1.2-1.1-1.5-1.1-2.8-0.3c-1.7,1.1-2-0.2-1.3-0.9
		c0.4-0.4-0.2-0.9-0.2-0.9c-1.1-0.2-2,0.2-2.6,1.1c-1.5,2,0.4,2.2-0.1,3.1c-0.9,1.7,0.9,1.4,1.1,1.8c1.3,2.1,0.6-0.1,1.6-0.5
		C288,431.6,287.1,430.9,287.8,429.9L287.8,429.9z M288.1,439.3c-0.2-3.1-3.6-2.9-1.7-0.4c0.7,0.8,0.2,2.7-1.5,2.8
		c-1.8,0.2-1.2,5,1.3,2c1.3-1.6,1.2-1,2.8,0.4c1.3,1.1,3.3,0.2,0.6-2.4C288.9,441.1,288.4,440.1,288.1,439.3L288.1,439.3
		L288.1,439.3z M264.7,417.6c0.1-0.4,0.6,0,1-1.5c0.5-1.6-0.5-3.1-1.9-0.2c-1,2.2-2.4,4.2-0.6,6.6c0.6,0.8-0.8,2.9,0.9,4.4
		c0.2,0.2-0.2,0.5,0.3,1.5c0.2,0.3,1.1,6.1,0.8,6.8c-0.6,1.9,1.9,5.5,1.9,4c0-2.1-0.8-3.3,0.7-5.1c0.4-0.5,0.9-0.9,1.1-1.6
		c0.1-0.3,1.1,0,1.3-1.9c0.1-0.5,0.9-0.5,1.5-1.3c0.5-0.8-0.5-1.4-1.2-2c-2.1-1.8-2.8,0.2-3.8-2.5c-0.5-1.4-0.4-2.3-0.5-3.8
		c-0.1-0.9-1.7-1.8-1.5-3.3C264.7,417.6,264.7,417.6,264.7,417.6L264.7,417.6z M276.4,427.6c-1-0.7-2.9,0.5-1.4,1.3
		c0.8,0.4,1.3-0.3,1.1,1.1c-0.1,0.7-0.6,2-1.6,1.5c-0.3-0.2-0.5-2.8-2.1-0.6c-0.8,1,0.4,1.1-1.3,1.6c-0.1,0.6-0.8,1.8-0.1,2.9
		c1.1,1.7,1.8,1.5,3.8,1.6c0.9,0,0.6-0.8,2.1,0.7c0.8,0.8,2.5,0.7,2.5-1.3c0-1.9-0.1-1.3,0.8-3.1c0.4-0.8-0.5-2.6-1.3-3.1
		C277.2,428.8,277.7,429,276.4,427.6C276.5,427.6,276.4,427.6,276.4,427.6L276.4,427.6z M617.4,260.7c0.8-0.2,1.3-0.7,2.1-1
		c1-0.3,1.6,0.1,2.4,0.3c-0.1-0.4-0.3-1.1-0.3-1.6c2.3-0.2,4.2-1.4,5.8-2.4l2.7-1.4c1.8-0.9,1.2-0.1,2.2-1.8
		c0.6-0.9,0.7-2.2,1.8-2.4c1.2-0.2,2.2-0.4,3.4-0.6c1-0.2,6.1-1.4,6.7-1c-0.3,0.4-0.4,0.4-0.9,0.6c-4.3,1.9-3.8,3.8-4.3,5.1
		c2,1,2.4-0.1,3.6-1.2c1.4-1.4,1.6-1.8,1.6-4c0.6,0,2-0.4,2.4-0.5c1.6-0.5,2-2,3.4-2.5c0.8-0.3,1.2-0.5,1.9-0.9
		c1.4-0.9,1.4-2.1,2.9-2.9c0.6-0.3,4-1.1,4.7-0.8c-0.2,0.7-1.1,0.9-1.6,1.2c-0.8,0.5-1,0.5-1.6,1.2c-0.7,0.9-1.6,1.1-2.5,1.7
		c-0.4,0.2-0.5,0.3-0.9,0.4c0.5,0.7,1.9,1.2,2.8,1.2c0.4-1.8,2.5-1.7,4-0.9c0,0.6-0.1,0.4-0.1,0.9c2,1.1,5.8,1.7,8.4,2.3
		c2.9,0.6,5.8,1.4,8.6,2.1c2.8,0.7,5.5,1.7,9,1.7c4,0,7.4-0.9,9.7-0.9c0,0.6-0.1,0.6-0.5,0.9c-2.4,1.9-6.5,4-9.2,5.2l-3.4,1.7
		c-2.4,1.2-5,2-7.3,3.1c-3,1.5-3.8,2.4-4.9,2.9c-0.6,0.3-1.2,0.5-2.1,0.5l-0.4,0.8c-2.1-1.1-4.2-2.1-6.4-3.1c-2.5-1.2-4.1-2-6.8-2.6
		c0-0.8,0.4-1.4,0.5-2.2c0.1-0.8,0.1-1.8,0-2.6c0-2.1,0.7-2.5,1.5-3.8c-0.5-0.8-0.6-0.8-1.4-1.5c-0.5-0.4-0.6-1.1-0.9-1.8l-1.2,1.1
		c0.1,1.2,0.1,0.4-0.1,1.6c-1,0-2.4,0.5-3.4,0.7c-1.7,0.4-6.9,1.3-8.2,1.9c-0.5,0.3-1,0.1-1.6,0.2c0,1.1-0.2,2.6,0.1,3.7
		c0.2,0.9,0.6,2.3,0.6,3.3l-0.8,0.3c0.5,0,0.7,0.1,0.9,0.4c-0.1,0.5-1,0.7-1.7,1c-3.6,1.8-8.6,4-12.4,5.7l-7.2,3.3
		c-0.8,0.4-3,1.1-3.5,1.7c-0.8,1-0.3,1.2-3.2,1.9c-0.3-0.6-0.2-1-0.4-1.5c-0.7-0.7-8.6,0.3-10.1-0.4c0.3-1.1,3.9-2.1,4.7-2.5
		c1.7-0.7,3-1.7,3.9-3.3c-1.5,0-4.4,1.1-5.5,1.7c-1.6,0.8-3.4,1.4-4.9,2.2c0.5,2,2.4,2.9,4.1,3.5c0.5,0.2,1.3,0.4,1.6,0.8
		c-0.3,0.5-2.6,1.2-3.1,1.3c0.2,0.3,0.4,1.6,0.4,2.1c-0.7,0.2-1.4,0.5-2,0.8l-4,1.7c-0.6,0.2-1.4,0.7-2.1,0.7c-0.3-1-1.3-2.1-1.7-3
		c-0.7,0-0.8,0.1-1.2-0.3c-0.6-0.8-0.8-2.4-1.5-2.9c0,0.3,0,0.9,0,1.2c0.1,0.7,0.8,1.5,1.1,2.1c0.5,1,1.1,1.7,1.7,2.6
		c-0.4,0.5-3,2.1-3.8,2.6l-3.8,2.5c-2.3,1.4-1.6,1.1-4,2.3c-1,0.5-3.6,1.9-4.7,1.3c0.1-0.6-0.1-0.2,0.4-0.7c0.5-0.5,1.3-0.9,1.7-1.5
		c-1.1,0-1.6-0.1-2.7-0.1c-0.9,0-1.9,0-2.8,0c0.3,0.4,0.1,0.2,0.5,0.4c0.6,0.2,1.6,0.3,1.6,1.1c-1,0.2-2.5,0.3-3.5,0.5
		c-4.9,0.8-7.9,1.7-12.4,3.5c-1.5,0.6-7,3.4-8.3,3.5v-0.4c0.4-0.1,0.4-0.2,0.8-0.5l3.6-2.2c1.5-0.9,3.1-1.5,4.7-2.1
		c1.1-0.4,2.2-0.8,3.2-1.4l5.8-3.3c1.6-1,3.8-2.3,5.3-3.3c0.1-0.1,0.2-0.2,0.3-0.2l-8.3,3.1c-1.5,0.5-2.7,0.9-4.3,1.4
		c-1.5,0.4-2.9,0.8-4.3,1.3c-4,1.3-6.4,1.8-10.7,3.6c-0.8,0.3-1,0.8-2.1,0.4c-2.1-0.8-2.4-0.8-4.9-0.8c0.1-0.9,1.3-1.8,2-2.2
		c0.9-0.6,1.9-1,2.9-1.3c2.1-0.7,4.4-1,6.5-1.6c8.1-2.4,5.3-2.1,9.8-6.7c2.6-2.6,5-3.7,7.8-5.8c1-0.7,0.8-0.5,2-0.9
		c1-0.3,1.7-1,2.6-1.5c2.2-1.3,4.6-1.1,6.8-0.4c1.3,0.4,0.9-0.6,1.5,0.7c0.4,0.8,0.4,0.1,0.5,1l-4.7,1.4c-0.3,0.1-0.9,0.3-1.3,0.2
		c-0.9-0.2-0.4-0.8-3.7-0.8c0.7,0.9,2.2,1.2,2.3,2.1c-0.4,0.1-0.7,0.4-1,0.6c-3.3,2-4.9,0.6-6.7,4.1c0.6-0.1,2.5-0.9,3.1-1.2
		l2.8-1.3c1.9-0.9,3.7-1.8,5.6-2.7l5.5-2.9c0.9-0.5,1.7-1.1,2.6-1.5c1.8-0.9,7-2.7,9.2-3.4c1.1-0.4,2-0.7,3-1.1
		c5.8-2.3,6.3-3.2,10.9-5.7c0.7-0.4,2.2-1,2.8-1.4c-0.9,0-1.2,0.2-2.3,0.1c-1.7-0.3-4.6-1.2-5.3-2.3c0.3-0.4,1.4-1,2-1.2
		c1.1-0.4,1.4-0.4,2.6-0.1c5.1,1.2,8.7-3.8,13.5-4.9c-0.1-0.3-0.1-0.3-0.2-0.6c-0.2-0.6,0.1-0.1-0.4-0.4c-0.5-0.4-0.5-0.1-0.9-0.7
		c0.5-0.2,0.8-0.4,1.3-0.6c2.4-0.8,0.8-1.9,3-2.4c0.3,0.6,0.1,0.9,0.3,1.6c0.1,0.4,0.5,0.8,0.8,1.1c-0.8,1.2-4,3-5.5,3.8
		c-1,0.5-5.4,2.8-6.3,3C616.8,260.1,617.4,259.6,617.4,260.7L617.4,260.7z M470.8,307.7c-3.4,0.3-8.7,4.4-12.2,4.4
		c0.2-2,5-3.8,6.7-4.3l8-2.9c0.2,0.7,0.4,1.2,0.5,1.9c0.7-0.4,1.4-0.7,2.1-1.1c0.7-0.4,1.3-0.7,2-1.1l11.5-5.8
		c0.5-0.3,0.3-0.4,0.5-1c-0.6,0-1.7,0.6-2.3,0.9c-1.6,0.7-5.3,3.1-6.9,2.3c0.2-0.9,2.6-1.3,3.6-2.3c1-1,4-2.6,5.5-3.3
		c3.9-1.6,1.3-1.8,4.9-3.7c-0.3-0.7-0.5-1.7-0.8-2.4c-0.6-1.6-1.3-2.9-2-4.5c-0.9-2.2-2.2-4.1-3.4-6.1c-0.6-1.1-1.7-2.8-2.9-3.4
		c0-0.6-0.1-0.9-0.1-1.4c-0.1-0.7,0-0.6-0.3-1.2c-0.3-0.7-0.6-1.2-0.9-1.9c-0.9-1.8-1.3-2.3-1.3-4.5c2.7,0,3.7,4.2,4.7,6.3l2.9,5.5
		c0.3,0.6,0.6,1.1,0.9,1.8c1,2.4,2.4,3.9,3.7,7.3c0.7,2,1.6,3.7,2.9,5.3c1,1.3,1.5,1.8,2.6,0.2c-0.5-0.8-0.4-0.7-0.4-2
		c0.8-0.2,2.9-1.3,3.7-1.7c2.8-1.7,5.6-3.2,8.5-4.6c1.2-0.6,2.8-0.8,3.4-1.1c0.5-0.3,1-1,1.8-1.5l5.2-2.7c1.1-0.6,2.2-1.3,3.2-2
		l1.5-1.1c-0.1-0.8-0.9-1.6-1.3-2.2c-2.5-3.7-5-10.6-7.2-15.1c-0.2-0.4-0.3-0.7-0.5-1.1c-0.7,0.1-2.6,1.2-3.4,1.6
		c-1.2,0.5-2.2,1.1-3.4,1.6c-1.2,0.5-2.2,1.1-3.4,1.6c-1.4,0.6-2,1.3-3.6,0.6c0.6-2.7,0.2-1.5,2.7-2.2c3-0.9,5.5-2.7,8.4-4
		c2.1-1,0.7-1.3,3.8-3.6c2.9-2.2,9.9-4.5,13.6-6c2.6-1.1,5.8-2.5,8.1-4.1c3.9-2.6,7.6-3.5,11.5-5.6c0.5-0.3,1-0.7,1.5-0.9
		c0.8-0.3,1.1,0.3,1.8,0.5c0-0.6,0.2-1.9,0.4-2.3c0.4,0.1,0.5,0.4,0.7,0.8c0.5,0.8,1.5,1.7,1.6,2.7c0.1,2.2-0.2,3.1,2.4,3.4
		c0-0.6,0.2-0.9,0.1-1.7c-0.2-1-1-1.6-1.3-2.5c-0.6-1.5,2.6,0,4.6-0.8c0.8-0.3,1.6-1.1,2.5-1.2c0.1,0.5,1.1,1.9,1.5,2.2
		c1.9,1.6,2.2,2,3.1,4.4c0.2,0.5,0.3,0.8,0.6,1.3c0.2,0.4,0.5,0.7,0.6,1.1c-0.4,0.6-1.4,1.2-2,1.6c-1.8,1.4-2.6,1.8-2.8,4.3
		c-0.1,1.1,0.2,0.6-0.5,1.3c-0.4,0.4-0.3,0.7-0.9,0.8c0.2,0.3,0.2,0.6,0.4,0.9c1.2-0.1,2.2-1.5,1.6,0.8c-0.2,0.9-0.6,2.2-0.6,3.1
		c-1.3-0.1-3-3.4-3.6-4.3c-0.7-1-2.3-4.5-2.8-5.1c0.1,1.6,1.9,3.9,2,5.5c-3.1,1.7-9,5.4-12,6.7c-3.4,1.4-6.3,3.6-9.2,4.7l-3.2,1.3
		c-0.2-0.3-0.5-0.6-0.7-0.9c0.1-0.5,0.1-0.2,0.3-0.7c-0.7,0.2-1.4,0.6-2.1,0.9c-0.7,0.3-1.3,0.5-2,0.8c-0.7,0.3-1.3,0.6-2,0.8
		c-0.6,0.3-1.3,0.6-2,0.8c0-0.7-0.1-0.4,0.3-0.7c0.2-0.2,0.3-0.2,0.6-0.4c0.4-0.3,0.7-0.4,1.2-0.7l10.9-6c1.2-0.7,5.2-2.9,6.2-3.2
		c-0.1-1.2,0-1.5-0.8-1.5c-0.7,0-1.4,0.1-2,0.2c-1.6,0.3-9.7,4.5-11.8,5.6c-1.9,1-3.8,2-5.8,2.8c-1.1,0.5-2.6,1.2-3.1,0.1
		c0.4-0.2,0.9-0.2,1.4-0.4c2.7-0.7,5.3-2.4,7.7-3.7c4.1-2.4,9.3-5.4,14-5.7c0.7,0,0.7-0.2,1.2-0.6c0.5-0.4,0.3-0.5,0.6-1
		c0.8-1.2,5.9-5.3,7-6.1c0.4-0.3,1.6-1.1,2-1.2c-0.1-0.5-0.3-0.7-0.5-1.1c-0.4-0.8-0.8-2.4-1.4-3c0,0.7,0.1,1.3,0.1,2.1
		c-1.3,0.3-9.4,4.1-10.6,4.7c-0.4,0.2-0.7,0.3-1.1,0.5c-0.8,0.4-1.5,0.7-2.2,1.1c-1.4,0.7-3.1,1.5-4.5,2.3c-0.7,0.4-1.4,0.7-2.2,1.1
		l-4.6,2.1c-0.7,0.3-1.6,0.8-2.3,1.1c-2.8,1.1-5.1,3.3-8.2,3.6c-0.8,0.1-0.8-0.1-1.5-0.1c0.4,0.8,0.9,1.6,1.4,2.5
		c0.5,0.8,0.7,1.8,1.1,2.8c1.8,4.6,5.1,8.2,6.4,13c0.1,0.3,0.3,1.4,0.4,1.5c0.2,0.5-0.1,0.2,0.6,0.3c0.3,0.1,0.4,0.1,0.8,0.1
		l0.6,4.2c0.1,0.6-0.1,0.7-0.6,0.4c-1.5-0.9-1.6-2.6-2.3-4c-2.4,0.6-4.6,1.5-6.7,2.6l-10.5,5.7c-2,1-5.7,3.4-8,3.4
		c0-0.5,0.1-0.5,0.5-0.7l18.4-9.3c1.2-0.6,1.9-1.1,3.2-1.6l1.7-0.7c0.5-0.3,0.5-1.2,0.5-1.8c-1.7-0.1-2.4,0.1-3.9,0.9
		c-2.7,1.4-5.2,4-8.3,4.4c-1.6,0.2-0.2,0.5-1.1,1.4l-9.9,5.3c-0.5,0.3-2.8,1.6-3.2,1.7c0,0.5-0.1,0.4,0.4,0.5
		c-0.1,0.8-1.3,1.1-2,1.4c-0.6,0.2-1.8,0.8-2.3,0.9c0.5,1,2.1,4,2.1,5.2c-1.1,0-1.9-0.4-2.3-1.3c-0.3-0.8-0.9-1.7-1.1-2.6
		c-1.7,0-5.2,1.7-6.9,2.5l-2,1.1c-2.7,1.4-5.6,2.7-8.2,4.3c-0.7,0.4-1.3,0.7-2.1,1.2l-4,2.2c-2,1.1-4,2.2-6.1,3.1
		c-0.8,0.3-1.4,0.6-2.2,0.9c-0.8,0.3-1.7,0.8-2.1,0.1C465.5,310.7,470,308.8,470.8,307.7L470.8,307.7z M573.1,214.2
		c-0.3,0.2-1,1.1-1.3,1.4l-2.5,2.8c-2.3,2.3-4.2,2.9-7.8,2.9c-1.5,0-1.8-0.1-2.4-0.1c0.1-1.4,1.6-1.4,1.6-3.6l-3.6,1.3
		c-0.6,0.3-1.1,0.5-1.7,0.7c-3.7,1.6-13.6,6.8-17.7,9.1c-2.5,1.4-5.6,2.5-8,4.2c-0.3,0.2-0.4,0.3-0.7,0.5c-3.1,2.4-0.6,3-4.4,6.6
		c-2.5,2.3-13.5,4.8-15.1,4.1c0.1-0.5,0.5-0.5,1-0.8c0.4-0.2,0.7-0.5,1-0.7c1.6-1.2,6.3-4.9,7.5-6.2c0.4-0.4,0.6-0.5,0.9-0.8l5.2-5
		c0.8-0.8,0.7-0.4,1.8-1.7c0.6-0.7,3.8-3.1,4.8-3.6c2.1-1.2,6.8-4,8.7-4.8c2.7-1.1,4.2-2,7.2-3.1c0.5-0.2,0.9-0.3,1.3-0.5l19.5-9.5
		c1.9-0.9,4.7-2.5,6.5-3.7c1.7-1.1,1.1-1.3,2-1.4c0,4.4-0.7,5.4-2.3,9.2c-0.9,2.1-0.7,1.7,0.2,3c0.2,0.3,0.3,0.4,0.6,0.8
		c0.4,0.6,0.8,1,1.2,1.6c0.3,0.5,1,1.1,1,1.8c-0.8,0.2-2.5,1.3-3.1,1.5c0,0.8,0.3,1.5,0.4,2.1l-1.5,1.2c-1,0.8-1.4,2.3-4.8,2.9
		c-0.8,0.1-1.1-0.2-2-0.5c-0.4-0.2-0.6-0.3-0.9-0.4c-4.1-1.8-2.8-0.8-4.5-0.4c-0.7,0.2-0.6-1-4,0.1c-1.6,0.5-9.2,3.9-10.4,5
		c0.8,0,2.9-1,3.5-1.4c2.2-1.3,4.5-3.1,6.7-2.2c1.2,0.5,1.9,1.2,2.9,1.8c0.8-1.5,0.6-0.9,2.2-1.4c1.2-0.4,1.4-0.6,3-0.6
		c0.4,0.6,0.4,0.1,0.4,1.1c-1.8,0-1.9-0.8-3.8,2.4c-0.3,0.5-0.9,1.6-1.4,1.8l-7.5,2.2c-3.2,1.1-6.3,1.8-9.3,3.4l-13.5,5.6
		c0-6.4,4.5-3,6.9-7.6c0.2-0.4,0.4-1,0.5-1.5c0.1-0.9-0.3-0.9,0.2-1.7c0.3-0.4,0.7-0.7,1.1-0.9c2.3-1.7,3.1-1.8,5.4-2.7
		c4.2-1.7,11-5,14.5-6.1c3.6-1.1,4.5,0.2,6.7,0.8c2.2,0.6,1.4,0,2.6,0c0.6,0,3.4,1,3.8,1.2c0.1-0.3,0.6-1.7,0.7-2
		c-0.4-0.1-0.8-0.2-1.1-0.4c-0.4-0.2-0.6-0.2-0.6-0.7c1.1-0.1,2.3-0.6,2.8-1.3c0.3-0.4,0.5-0.7,0.8-1.2c0.8-1.2,0.7-0.5,0.8-1.3
		c-0.4-0.1-0.6-0.2-0.9-0.4c-0.2,0.4-1.9,2.6-1.5,0.5C572.7,216.6,573.1,215.3,573.1,214.2L573.1,214.2z M377.2,330.3
		c-0.7,0-1.2-0.7-1.5-1.2c-0.5-0.9,0.6-0.5,1.5-0.6c1.5,0,2.1-1.3,3.8-1.3c0.1,0.5,0.3,0.8,0.6,1.2c0.2,0.4,0.3,0.6,0.5,1.1
		c1,2.5,2.1,4.2,2.1,7.8l-0.1,2.1c-0.5,0-0.4-0.1-0.7-0.4c-1.8-2.7-2.8-0.6-4.7-0.1c0.4,0.6,2,0.7,2.6,0.9c0.7,0.2,1.4,1.1,2.1,1.3
		c0,0.6-0.3,1.2-0.5,1.8l-1.5,5.3c-0.7,2.4-1.4,4.8-2,7.1l-3,10.7c-0.6,2.1-0.3,1.6-2.1,2.5c-1,0.5-2,1-3,1.5l-6,3.1
		c-1.5,0.7-2.3,1.4-3,1c-2.9-1.5-6-5.9-8.8-7.2c-1.3-0.6-1.5,0-1.5-0.5c0-0.2,0.2-0.9,0.3-1.1c0.3-0.4,4.5-2.2,6.6-5.4
		c0.8-1.3,0.2-0.8,1.3-1.4c3.2-1.8,2.5-1.3,5.4-2.5c3.3-1.3,6-3.2,9.2-4c0.8-0.2,1.4-0.3,2.2-0.5c0.7-0.2,1.5-0.6,2-0.6
		c0.2-1.1,0.7-2.4,0-3.4c-0.5-0.8-2-0.8-3.2-0.6c-2.1,0.4-5.6,1.9-6.2,2c0-1.1,0.7-1.9,1.2-2.6c0.9-1.4,2.3-2.8,3.2-4.4
		c1.8-3.2,0.5-2.5,0.9-3.8l1.1-2.9c0.3-0.7,1.2-3.4,1.7-3.8c0.9,0.2,0.1,0.5,1.3,0.5c1,0-0.2-1.6-0.5-1.9
		C377.8,330.2,377.7,330.3,377.2,330.3L377.2,330.3z M552.3,308.3c2.8,0,3.7-1.3,6.9-1.8c2.7-0.4,1.4,0.2,2.6-1.7
		c0.5-0.8,1.7-1.4,2.9-1.4c0,1.4-0.9,3.1-1.5,4c-1.9,2.6-5.1,2.3-7.4,3.6c-2.8,1.4-10.2,0.6-12.9,0.1c-7.8-1.3-12.9-2-21.5-2
		c-4.1,0-4.6,1.6-5.3,1.8c-0.6,0.2-1.4,0-2,0.1c-1.3,0.2-0.8-0.1-1.7,0.5c-1.2,0.8-2.8,1.7-4.2,2.3c-0.6,0.3-1,0.5-1.6,0.7
		c-2.3,0.9-7.6,4.5-10.3,4.5l-0.1,0c-0.4-0.2-1-2.3-1.1-2.7c0.5-0.1,2.6-1.3,3.2-1.7l10.8-5.8c0.7-0.4,0.9-0.4,1.8-0.6
		c4.1-0.9,3.7-2.9,11.2-2.9c0.9,0,2-0.1,2.9,0.1c0.8,0.1,1.7,0,2.6,0.1l5.2,0.3c3.3,0,5.4-1.4,6.9-0.4
		C543.4,308.1,547.6,308.3,552.3,308.3L552.3,308.3z M592,265.5c-0.4,0.1-0.6,0.3-0.9,0.6l-3.8,3.1c-0.2,0.2-0.5,0.6-0.8,0.6
		c-0.9,0.1,0.6-2.1,0.8-2.5c1.2-1.9,2.2-3.2,3.5-5c0.8-1.1,1.6-2.1,2.4-3.2c0.5-0.7,0.6-0.5,1.8-1.1l9.8-5.6
		c0.4-0.2,0.5-0.3,0.8-0.5c0.7-0.4,1.2-0.4,1.9-1c1-0.9,0.7-0.6,1.8-1c2.1-0.7,3.8-1.7,5.8-2.7l3.6-2c11.3-5.5,9.6-7,11.4-8.3
		c0.4-0.3,1.3-0.8,1.9-0.8c0,0.9-1.4,2.6-1.8,3.4c-4.7,7.9-7.4,11.3-16.5,14.4c-1.4,0.5-2.5,0.7-3.9,1.3c-3.2,1.2-8,4-10.5,6.4
		l-2.1,1.7c-2,1.6-3.5,3.4-5.2,5.2l-2.7,2.4c-0.9,0.9-1.4,2.1-3,2.1c0.1-0.7,0.3-0.7,0.6-1.1L592,265.5L592,265.5z M463.6,273.3
		c0-0.5,0.2-0.6,0.6-0.8l2.3-1.6c0.6-0.4,1-0.7,1.6-1c0.5-0.3,1-0.6,1.6-1c3.9-2.5,8.8-5.4,12.9-7.8l21.3-12.3
		c0.6-0.3,1.1-0.6,1.6-0.9c1.4-0.9,2.2-1.3,3.6-1.5l4.7-0.4c3-0.1,5.9-0.8,4.3,0.5l-2.2,1.7c-0.7,0.6-2.4,1.3-3.3,1.8l-47.2,22.4
		C464.8,272.9,464.3,273.3,463.6,273.3L463.6,273.3z M353.7,403.2c0.8-0.2,2.3-1.1,3.1-1.5l44.1-21.4c0.4-0.2,1.2-0.5,1.5-0.6
		c0.3,0.5,1.3,2.6,1.3,3.1c-2.9,1.5-6.3,3-9.2,4.5l-6,3c-6,3-12.2,5.8-18.3,8.9l-10.6,5.1c-0.9,0.5-3.9,2-4.6,2.1
		C354.8,405.7,353.8,403.9,353.7,403.2L353.7,403.2z M349.2,373.2c0.2,1,0.9,1.3,0.9,2.7c0.1,2,0.1,1.8-1,2.6
		c-0.7,0.5-1.4,1-2.1,1.5c-1.3,0.8-1.4,0.2-2.8,0.2c0,0.6-0.3,1.7-0.4,2.3c-1.1,0.3-1.9,0-3.2,0.2c-0.7,0.1-0.3,0.2-0.8-0.1
		l-2.4-1.9c-0.7-0.5-0.6-0.4-1.1-1.2c-0.3-0.5-0.6-0.8-0.8-1.3c-1-1.7-1.5-1.6-0.9-2.8c0.4-0.7,0.5-1.1,0.9-1.3l7.3-3.6
		c1-0.5,1.9-1,2.9-1.4c0.5-0.2,2.6-1.4,3-1.4c0.2,0,1.4,0.2,1.7,0.4c0.3,0.2,2.1,4.1,2.2,4.4c0.4,1.1,1,1.9,1.4,2.9
		c0.4,1,1.1,2,1.4,3c0.3,1-0.5,0.4-0.8,0c-0.3-0.4-0.6-0.8-0.9-1.3c-0.3-0.4-0.5-0.9-0.9-1.3c-0.2-0.3-0.3-0.3-0.5-0.6
		c-0.4-0.5-0.3-0.4-0.5-0.5c-0.2,0-0.2,0.1-0.7-0.1C350.1,374.1,349.6,373.5,349.2,373.2L349.2,373.2z M350,396.1
		c3.7-1.9,8.2-3.9,12.1-5.9l15.5-7.5c2.3-1.2,4.5-2.2,6.8-3.4l10.3-5c1.2-0.6,9.5-4.9,10.4-4.9c0.2,0.8,0.8,1.6,0.9,2.3
		c-4.2,2.2-9.5,4.6-13.8,6.7c-2.3,1.1-4.6,2.2-6.8,3.4c-9,4.5-18.5,8.8-27.5,13.3c-1,0.5-6.3,3.2-7,3.2
		C350.7,397.4,350.2,396.9,350,396.1L350,396.1z M450.7,285c0.7-0.2,1.8-0.7,2.4-0.9c0.8-0.3,1.5-0.6,2.3-0.9c1-0.4,3.9-1.7,4.7-1.7
		c0,0.6,0.2,0.4,0.3,0.9c-0.4,0.2-0.5,0.2-1,0.4c-2.4,0.8-6.6,3.4-8.9,4.6l-7.2,4.1c-2.2,1.2-7,3.8-9.1,4.3
		c-0.8-1.1-1.9-3.5-2.6-4.8c0.8-1.3,1.5-2.2,2.7-3.1c1.1-0.8,2.6-1.3,4.4-1.3c1.4,0,0.1,0.8-0.1,1.6c0.5-0.2,1.1-0.4,1.7-0.6
		c2.5-1,5.8-2,8.1-2.9c0.5-0.2,1.1-0.3,1.7-0.6c0.7-0.3,0.6-0.7,1.3-0.9C451.6,284.1,450.7,283.6,450.7,285L450.7,285z M396.2,336.4
		c0-1.3,0.4-1.2,1.3-1.7l11.5-5.7c0.3-0.2,1.6-1,1.9-0.7c0.4,0.4-2.3,2.4-2.8,2.8c-3.4,2.3-6.5,2.6-8.8,5.4
		c-0.3,0.4-1.1,1.1-1.7,1.1c0,0.9,0,1.9,0,2.8c0,1.1,0.1,1.5,0.1,2.5l0.1,5.2c0.2,5.7-0.6,4.3,2.2,8.7c0.3,0.5,0.7,1.3,0.9,2
		c0.1,0.4,0.2,0.7,0.2,1.1c0,0.3,0.2,0.8-0.4,0.6c-1.8-0.5-4.7-6.4-5.5-8c-0.1-0.2-0.3-0.7-0.4-0.9c-0.2-0.4-0.3-0.3-0.8-0.6
		c-0.1,0.5-0.2,1.3-0.8,1.5c-0.4-0.8-0.8-7.5-0.6-9.2c0.2-1.5,0.4-3,1-4.1c0.7-1.4,1.3-1.6,3-2C396.5,337.1,396.2,336.6,396.2,336.4
		L396.2,336.4z M591.6,240.5c-0.2-0.6-1.1-1.9-1.5-2.4l-3.8-6c-0.3-0.5-0.6-0.6-0.6-1.3c2.4,0,4.6,4.1,5.5,5.9
		c0.2,0.4,0.3,0.7,0.5,1c0.2,0.4,0.4,0.6,0.5,0.9c0.2,0.4,0.3,0.6,0.5,1c0.8,1.3,1.6,0.4,3.2,0.9c0.6,0.2,1.4,0.6,1.9,0.9
		c-0.4,0.7-0.9,1.1-1.3,1.9c-1-0.1-2.1-0.7-4.2-0.7c-1.7,0-6.6,1.5-8.4,2.1c-2.6,0.9-5,2.1-7.7,2.7c-0.2-0.3-0.4-0.3-0.4-0.7
		c0-1,3.3-1.3,4.7-2c6.4-3.3-0.1-9.4-1.4-12.1c-0.4-0.9,0.4-0.7,1.2-0.7c0.8,0,1.2-0.2,1.9-0.1c2.7,0.4,4.7,7.6,7.3,9.3L591.6,240.5
		L591.6,240.5z M473.6,314.8c0.1-0.7,0.2-0.5,0.7-0.7c2.5-1.1,8.4-6,13.5-8.1c3.2-1.3,7.3-3.4,10.6-3.9c2.1-0.3,4.9-1.5,7-1.5
		c0.7,0,1.5,2.6-3.2,2.8c-1.4,0.1-5.5,1.1-6.7,1.7l-5.5,2.8c-0.5,0.3-1.2,0.7-1.7,1.1c-2.1,1.7-10.1,7.9-11.7,7.9
		c-2.7,0-2.1-1.2-2.1-2.1H473.6L473.6,314.8z M495.8,323.8c3.4-1.6,3.9-2.4,6.4-3.7c1.5-0.8,2.2-0.8,3-1.3c0.6-0.4,0.8-0.2,1.8-0.6
		c1-0.4,1.8-0.2,2.9-0.5c0.8-0.2,1.9-0.4,2.7-0.6c0.8-0.2,1.6-0.8,2.5-0.8c2.2,0,3.6,2.4,3.6,3.1c0,1.4-3.5,1-4.9,1.3
		c-1,0.2-1.4,0.6-2.1,1c-3.3,2-3.4-0.6-4.8,0.2c-0.4,0.3-0.6,0.5-0.9,0.9c-1.4,1.6-2.4,3.1-5.4,3.1c-1.5,0-2.6,0.2-3.6-0.5
		c-0.6-0.4-0.4-0.6-1.1-0.6C496,323.8,496,324.4,495.8,323.8L495.8,323.8z M453.5,335.3c1.1-0.3,2.5-0.7,3.6-1.1
		c2.9-1,5.7-1.8,8.2-3.6c1.1-0.8,0.7-1.1,1.2-1.1h7.1c0.7,0,0.8,0.1,1.5,0.1c0,0.5,0,0.4-0.4,0.6l-1.8,1c-0.9,0.5-1.6,0.9-2.4,1.3
		c-0.4,0.2-0.8,0.4-1.2,0.7l-13.3,7.5C454,339.5,453.5,337.7,453.5,335.3L453.5,335.3z M435.4,297.1c0.2-0.8,3-2.3,3.7-2.7
		c0.5-0.3,0.8-0.5,1.3-0.7l5.7-2.7c2-0.8,3.9-1.7,5.9-2.5c3.1-1.3,8.7-3.7,11.4-5.3c0.9-0.5,2.5-1.5,3.3-2.1
		c0.3-0.2,0.3-0.3,0.6-0.5c0.8-0.5,10.7-4.4,13.2-5.6c0.3,0.5,0.9,1.1,0.9,1.7c-0.5,0.2-1.1,0.4-1.6,0.6l-8.4,3.6
		c-0.5,0.3-0.8,0.4-1.4,0.6c-1,0.4-1.8,0.9-2.8,1.4c-1,0.4-1.8,0.8-2.7,1.3l-5.3,2.8c-1.2,0.7-1.6,1.2-2.6,1.5
		c-2.7,0.9-5.9,2.4-8.4,3.7c-1,0.5-1.9,0.9-2.8,1.4C443.3,294.5,438.1,298.5,435.4,297.1L435.4,297.1z M577,245.1
		c-0.7-1-1.1-2.2-1.7-3.4c-0.6-1.2-4.7-9.6-4.7-10.4l4.8,0.3c0.5,0.1,0.8,0.1,1.5,0.1c0.3,0.6,2.1,2.6,3.2,4.7
		c0.8,1.6,1.8,3.7,1.8,6c0,0.7-0.4,0.8-0.9,1L577,245.1L577,245.1z M577.1,225.1c1.6-3,3.2-3.8,6.2-5.3c3-1.5-0.7,0.9,3,7.4l1.7,2.9
		c0.2,0.6-0.3,0.4-0.7,0.2c-2.2-0.9-5.8-2.8-8.3-2.2l-0.7-1.1c-1.2,0-6-0.6-6.8-0.9c0.2-0.8,2.2-1.7,2.8-1.7
		C574.6,224.3,576.9,225,577.1,225.1L577.1,225.1z M300.5,353.2c-0.9,0-1.4,0.1-2.2,0.1c-1,0.1-1.4,0-0.6-0.6c1.8-1.5,6-4.6,7.9-5
		c1.8,2.7,4.1,6.7,5.3,9.8c0.3,0.8,1.1,2.9,1.1,3.9c0,0.8-4.5-2.1-5.5-3.8c-0.6-0.9-0.7-3.2-1.2-3.7
		C304.7,353.4,301.5,353.2,300.5,353.2L300.5,353.2z M640.1,269.1c0-0.8,0.5-1.6,0.9-1.9c0.7,0.5,1.9,3.5,2.5,4.5
		c1.2,2.1,1.9,2.5,4.3,2.5l1.1-5.8c0.7,0.1,0.5,0.4,0.7,1.2c0.1,0.5,0.3,0.9,0.3,1.4c0.1-0.1,2.8-0.9,3.7-0.3
		c1.2,0.7,0.9,0.2,1.7,0.6c-0.5,2.4-5.1,3.6-7,4.5c-1.2,0.6-2.5,1.3-3.8,1.9c-0.7,0.3-1.2,0.6-2,0.9c-0.9,0.3-1.9,0.9-1.9,0.1
		c0-1.8,0.9-2.8,2.3-4c0.4-0.3,0.7-0.4,0.9-1c-0.9-0.2-1.8-1-2.5-1.5C640.5,271.4,640.1,270.4,640.1,269.1L640.1,269.1z
		 M435.8,354.1c0.8-1.1,2.6-2.3,3.9-3l2.3-1.2c2.5-1.1,10.7-4.9,12.4-4.9c0,0.7-0.4,0.9-0.8,1.3c-1.2,1.1-2.4,1.6-3.9,2.3
		c-1,0.5-2.6,0.9-3.7,1.5c-0.3,0.1-0.5,0.2-0.7,0.4c-0.5,0.3-0.8,0.5-1.2,0.8c0.1,0.4,0.3,0.5,0.3,0.8c0,0.8-1.8,1.8-2.5,2.1
		c-1.2,0.4-3.3,0.5-3.8,0.8c0.4,0.6,1.3,1,1.5,1.7c-0.8,0.4-1.6,0.3-2.5,0c-0.5-0.2-0.5-0.1-0.7-0.6L435.8,354.1L435.8,354.1z
		 M307.2,348.9c-0.7-1.1-0.9-1.4-0.2-1.5l5.1-0.3c0.8,0,1.7,0.1,2.5,0c1.5-0.2,3.2-0.4,4.7-0.7c1.7-0.3,2.3-1,3.6-1.6
		c0.6-0.3,1.1-0.6,1.7-1l5.2-2.7c1.2-0.6,2.5-1.1,3.9-1.5c0.7-0.2,1.4-0.4,2-0.6c0.6-0.2,1.3-0.5,2-0.6c0,0.7,0,0.5-0.6,0.8
		l-12.9,6.4c-2.5,1.3-4.3,2.6-7.2,3.1c-1.3,0.3-3.5,0.4-4.9,0.2C310.9,348.7,308.6,348.9,307.2,348.9L307.2,348.9z M569,309.9
		c0.1-1.3,1-1.9,1.8-2.2c1.3-0.6,3.1-2.6,5.9-2.6c1.3,0,5.5,0.2,6.2,0.5c-0.2,0.9-1.5,1.2-2.3,1.6l-4,1.9c-1.9,1.3-1.9,2.4-2.7,2.9
		C573.2,311.9,569.4,310.1,569,309.9L569,309.9z M425.8,312.4c-0.6-0.2-1.1-0.9-1.4-1.4c-1-1.4-1.7-2.8-2.4-4.3
		c-0.1-0.3-0.3-0.5-0.4-0.9c-0.3-0.8-3-7-3-7.7c1.3,0,2.6,1.4,3.1,2.5c1.4,2.9,1.2,2.7,2.9,2.7c0.3,1.2,1.5,2.4,1.7,3.6
		c0.8-0.4,1.4-0.9,2-0.9c-0.1,1.2-1,0.9-0.7,3c0.3,2,0,1.1-1.6,0.8c0.1,0.3,0.5,1.2,0.5,1.5C426.2,311.4,426,311.7,425.8,312.4
		L425.8,312.4z M255.1,382.8c0.5-0.1,0.8-0.4,1.3-0.6c0.4-0.2,0.8-0.4,1.2-0.6c0.8-0.4,1.6-0.8,2.4-1.2l12-6.1
		c0.5-0.3,1.9-1.1,2.5-1.1l0.8,1.7c-1.6,0.9-3.3,1.5-4.9,2.5c-0.8,0.5-1.6,0.8-2.4,1.2c-1.6,0.8-11.1,5.9-12.2,6
		C255.6,383.9,255.1,383.6,255.1,382.8L255.1,382.8z M523.8,290.6c0.5-0.3,1.4-0.6,1.8-1c0.7-0.6,0.5-0.8,1.5-1.2
		c0.7-0.3,1.2-0.5,1.9-0.7c2.3-0.8,1.9-0.8,3.5-1.8c1.4-0.9,4.3-2,6-2c1.1,0,2.6,0.7,2.6,1.7c0,0.7-1.2,0.8-1.8,1
		c-0.7,0.2-1.4,0.5-2.1,0.6c-1.1,0.1-1.5,0.1-2.5,0.3c-3.1,0.8-8.6,5-10.6,3.6C523.9,290.9,524,290.9,523.8,290.6L523.8,290.6z
		 M326.8,348.1c1,0,3.1-2.3,4.3-2.3c0.4,0,0.9-0.1,0.9,0.7c0,1.4-5,3.1-5.8,4.2c0.8,0.2,4.7,4.6-0.7,4.6c-1.1,0-1.3-2.9-2.3-4.5
		c-0.3-0.4-0.7-0.9-0.7-1.4C322.6,346.2,325.7,348.1,326.8,348.1L326.8,348.1z M594.2,295.2c0.6,0,0.9,0.4,1.3,0.7
		c1.1,0.8,1.5,0.3,4.3-0.8c2.3-0.9,4.9-2.3,7.1-1.8c0.2,0.5,0.3,1,0.5,1.5l-2.9,2.1c-3.1,2.1-2,2-4,1.6l-6.9-1.7
		C593.7,296.1,594,295.8,594.2,295.2L594.2,295.2z M367.3,328.5c0.3-0.4,1.5-1.2,2.1-1.6c2.1-1.4,1.3-1,2.9-2.4
		c1.4-1.2,1.6-1.2,2.9-1.5c0.7-0.2,0.8-0.6,1.9,1.1c1.4,2.4,0.8,2.1-1.2,3l-2.1,0.8c-0.9,0.5-2.7,2-4,2
		C369.4,329.9,367.5,329.2,367.3,328.5L367.3,328.5z M437.5,311.9c0,0.5-0.7,0-1-0.2c-2.1-1.2-3.8-5.4-4.6-7.5
		c-0.7-1.7-1.3-3.2-2.3-4.7c-0.4-0.5-1.8-4.4-1.8-5c1.6,0,2.6,2.5,3.2,3.7c0.9,1.8,0.9,2.6,2.5,4.2c0.6,0.6,2.7,5.8,3.2,7
		C436.8,310,437.5,311.6,437.5,311.9L437.5,311.9z M501.3,260c0,1.6-3.3,2.4-4.4,2.8c-1.2,0.5-7.7,4.3-8.3,3.1
		c-0.8-1.4,8.6-7,11.8-7C501.4,258.9,501.3,258.8,501.3,260L501.3,260z M593.8,255.4c1.8-1.2,2.8-3.5,4.6-3.9
		c0.7-0.2,0.1-0.2,0.5,1.6c-0.4,0.3-3,3.2-3.5,3.6c-0.4,0.3-0.4,0.2-0.9,0.1C593.6,256.8,593.4,257.1,593.8,255.4
		c-1.3,0.9-2.5,0.5-4.3,0.9c-3.3,0.8-1.8,0.3-4-0.3c0-0.9,0.4-1.9,0.5-2.7c2.6,0,5.7-1.9,6.2-3.5c0.8,0,1.1,0.5,1.7,0.8
		c0,1,0.1,1.4,0.1,2.4C594,255.4,594.1,254,593.8,255.4L593.8,255.4z M382.1,322.4c0-0.3,0.1-0.4,0.4-0.4c1,0,0.9,1.5,1.7,3.1
		c0.6,1.2,0.8,2.3,1.4,3.4c0.8,1.4,1.1,2.2,1.6,3.2c0.5,0.8,1.4,2.3,1.4,3.4c0,1-1.5,0.8-3-1.8l-3.1-6c-0.9-2.8-0.2-3-0.2-3.6
		C382.3,323.2,382.1,323.7,382.1,322.4L382.1,322.4z M253.9,386.2l2.1-1c0.4-0.2,0.7-0.3,1.1-0.5l7.3-3.4c0.7-0.3,1.4-0.6,2.1-1
		c0.8-0.4,3.5-1.8,4.2-1.8c0.1,0.5,0.3,0.8,0.5,1.2c-0.7,0.5-5.1,2.5-6.3,3.1l-4.2,2c-1.4,0.6-5.3,2.8-6.4,2.9
		C254.1,387,253.9,386.8,253.9,386.2L253.9,386.2z M560.1,276.2c0.1-0.9,1.6-3.5,3.6-3.5c0.7,0,4.2,1,4.7,1.2
		c-0.2,1.9-0.9,1.8-1.7,2.1C564,276.8,562.8,276.9,560.1,276.2L560.1,276.2z M592.7,291.8c-0.3,1.1-4.4,3.4-5.5,3.9
		c-1.5,0.7-3.5,1.6-5.1,2c-0.7,0.2-2.7,0.7-1.3-0.4l1.9-1.6c0.1-0.1,0.6-0.5,0.7-0.5c0.3-0.2,0.6-0.1,1-0.2c0.6-0.1,1.2-0.4,1.7-0.6
		C587.7,293.6,591,291.5,592.7,291.8L592.7,291.8z M451.9,308.9c0-0.5,0.3-0.8,0.6-1.2c1.1-1.5,0.7-1.4,1.9-1.5
		c0.6,0,0.9-0.1,1.6-0.1c0.1,2.6,1.6,4,1.6,5.9c-0.8,0.2-1.5,0.1-2.4,0.1c-0.1-0.3-1-1.9-1.2-2.2
		C453.7,309.5,452.5,309.2,451.9,308.9L451.9,308.9z M384.4,323.9c0-0.6,0.3-0.8,0.8-1c0.4-0.1,0.4,0,0.6-0.1
		c0.2-0.1,0.7-1.1,1.6-0.4c0.7,0.5,0.8,1.9,0.9,2.6c0.3,1.5,1.6,2.2,1.6,3.6c0,0.4,0,1.3-0.7,1.3c-1.3,0-2.3-2.8-2.4-3.1
		C385.8,325.1,384.4,325.5,384.4,323.9L384.4,323.9z M518.6,315.4c0-1,1.3-2,2-2.3l3.3-1c0.5,0,2.2,1.4-0.2,3
		c-0.6,0.4-0.9,0.9-1.4,1.4C521.3,317.6,518.6,316.5,518.6,315.4L518.6,315.4z M401.5,316.1c0-0.9,1.9-0.5,2.8,1.7
		c0.6,1.5,1.8,4.5,0,5.8c-0.8,0.6-0.9,0.3-1.9,0.1c-0.9-0.2-3.3-0.5-3.4-1.7c1.1-0.1,0.5-0.6,3.3-0.2c0.4,0.1,0.7,0.1,1,0.2
		C405,319,401.5,317.6,401.5,316.1L401.5,316.1z M407.6,345.4c-0.7,0-1.1-1.4-1.4-2c-0.7-1.9-3.5-6.5-1-6.5c1.4,0,1.9,1.8,2.1,3
		c0.2,0.8,0.3,1.3,0.5,2C408.1,342.6,408.8,345.4,407.6,345.4L407.6,345.4z M655.1,268.1c0-1.7,1.2-3.4,2.8-3.4
		c1.1,0,3.1,1.3,3.2,2.3l-4.7,1.4C655.4,268.8,655.1,268.9,655.1,268.1L655.1,268.1z M633.7,274.4c0-2.2,2.2-3.7,3.9-5
		c0.4-0.3,0.3-0.4,0.8-0.4c0.2,1,1.2,1.9,1.2,3C638.6,272.2,634.6,274.3,633.7,274.4L633.7,274.4z M610.6,288.5
		c-1.4,0-2.1-1.3-2.5-2.4c-0.3-0.8-1-3-0.9-3.7c1.1,0.2,2,0.7,2.4,1.6c0.5,1.1,0.7,0.2,1.2,1.4l0.9,2.8
		C611.3,288.3,611.1,288.5,610.6,288.5L610.6,288.5z M600.5,289.7c0.1-0.7,2.1-2.3,2.6-2.9c0.5-0.6,2-2.5,2.8-2.6
		c0.2,1,1,2.5,1.1,3.2C605.7,287.7,601.7,289.7,600.5,289.7L600.5,289.7z M562.4,280c-0.1,0.7-1.1,1.4-2,2.4l-2.2,2.1
		c-0.4,0.4-0.7,0.7-1.1,1.1l-2.8,2.6c-0.3,0.2-0.3,0.5-0.6,0.2C553,287.7,559.7,280.1,562.4,280L562.4,280z M570.7,302.4
		c0.5-0.1,2.3-1.1,2.9-1.4c0.4-0.2,0.5-0.3,1-0.3c0.3,1,2.1,2.4,2.1,3.5l-6-1.3V302.4L570.7,302.4z M387.3,320.3
		c0-0.6,0.5-1.1,1.1-1.2c1.3-0.2,1.6,1.7,2,2.5c0.4,0.8,0.3,0.9-0.1,1.6c-1.5-0.7-0.5-0.5-1.7-1.2
		C388,321.7,387.3,321.2,387.3,320.3L387.3,320.3z M398.3,320c0-0.5,1.1-0.7,1.4-0.8c0.6-0.3,0.3-0.2,0.3-0.3c0.2-0.2,0-0.1,0.2-0.3
		c0.1-0.1,0.5-0.4,0.7-0.4c1.2,0,1.1,0.6,1.2,0.5c0,0,0,0.1,0.1,0.1c-0.1,1.3-1.6,2-3,2.1v0.4C398.5,321.1,398.3,320.8,398.3,320
		L398.3,320z M158.6,360.8c0,0,8.2,16.4,7.3,26.3l1.7-0.3C167.6,386.8,168.5,377.5,158.6,360.8L158.6,360.8z M184.2,236.5
		c-1.6-0.1-1.3,1.1-1.3,2.6c0,2,0.6,3.2,0.3,5.2c-0.1,1.2,1,5.6,0.9,7.8c-0.1,1.4-2.2,7.4-3,8.6c-0.8,1.1,1.2,3.9,0.9,0.4
		c-0.1-1.6,2.9-4.6,3.4-5.9c0.1-0.3,2.4-1,1.4-1.5c-0.1-0.1-1.4,0.1-1.4-1.8c0-3.5-0.4-7-0.4-10.8C185,240,184.9,236.5,184.2,236.5
		L184.2,236.5z M192.3,253.4c-0.3-0.2-0.7-1.6-1.5-0.3c-0.4,0.6,0.8,1.3,0.6,2.5c-0.1,0.9,1.4,2.1,1.7,0.3c0.1-0.5,2.1-0.8,0-2.3
		C193,253.6,192.3,253.4,192.3,253.4L192.3,253.4z M188.7,261.6c0.5-1,1.2-2.5,1.9-1.9c0.5,0.4-0.4,1.7-0.5,2.8
		c-0.1,0.5-1.7,0.9-1.7-0.1C188.4,262,188.3,262.4,188.7,261.6L188.7,261.6z M267.7,325.7c0-0.4-1-1.4-1.3-2.1
		c-0.2-0.5-0.4-1.4,0.4-1c1.7,0.8,0.6,1.6,2.7,1.6c1.3,0,2.2,1.6,0.4,1.5c-0.3,0-0.4,1.3-1.7,0.2
		C268.1,325.9,267.7,325.7,267.7,325.7L267.7,325.7z M266.3,329.7c0.3-1.2,1.3,0,0.9,0.6c-1.2,1.7,1.6,2.8,1.3,3.3
		c-0.3,0.5-0.6,0.3-1,0.1C266.3,333,265.2,330.6,266.3,329.7L266.3,329.7z M271.6,333.6c0-0.8,1.4-0.4,1.9,0
		c0.7,0.5,0.3,0.9-0.2,1.2c-0.6,0.4-0.7,0.3-1.3,0.5c-0.4,0.1-1.5,0.2-1.5-0.3C270.4,333.9,270.6,333.7,271.6,333.6L271.6,333.6z
		 M274.8,324.7c0,0,0-0.1,0-0.1c-0.2-0.3,0.4-0.6,0.5-0.6c1.5,0.1,1.7,0.8,2.3,1.8c0.7,1.1,0.9,1.6,1,2.9c0.1,1.3-0.4,2.7-0.7,3.9
		c-0.2,0.8-0.9,1.3-1.2,0.6c-0.6-1.5,0.8-2.8,0.8-4.9c0-0.8-0.6-1.6-1.2-2.1C275.6,325.6,275.3,325.1,274.8,324.7L274.8,324.7z
		 M212.7,354.5c2.8-2,5.4,4.9,5.7,6.5c0.3,1.7-0.3,2.1-1.2,3.1s-2.1,0.6-3.5,0c-1.4-0.6-2.8-1.4-3.8-2.4c-1-1-0.1-1.2,0.5-1.9
		c0.6-0.7,0.3-2.2,0.4-3.3C210.8,355.3,212.7,354.5,212.7,354.5L212.7,354.5z M209.4,402.8c-0.3-4,3.7-2.8,3.7-4.1
		c0.1-1.3,0.6-2.4,2.7-3.1c2.1-0.7,2.1,0.8,2.6,2.1c0.6,1.3,0.7,1.5,1.4,3.8c0.8,2.3,0.1,2.1,0,3.6c-0.1,1.5,0.3,2.3,0.5,2.8
		c0.2,0.6,1.2,1.1,2.1,2.4c0.9,1.3,0.3,1.9,0.1,2.8c-0.2,0.9-0.5,1.1-1.4,1.9c-0.9,0.8-1.2,0.1-3.4,0.1c-2.2,0-0.5,0.2-2,2.2
		c-1.5,2-3.3,2.5-3.9,1.5c-0.6-1-1.9-4.3-2.7-5.3c-0.7-1-0.2-3.3-0.9-4.2c-0.7-0.9-1.3-0.9-1.3-2.6
		C206.9,404.9,209.4,402.8,209.4,402.8L209.4,402.8z M169.8,205.7c0,0-1.2,6-2.3,8.4c-1.1,2.4-1.7,5.3-2.8,7.3
		c-1.1,2-3.4,5.7-4.2,7.4c-0.8,1.8-1.2,5.2-1.8,7.1c-0.6,1.9-0.1,3-1.4,5.3c-1.3,2.3-2.3,3-2.8,5.3c-0.4,2.3-3.3,5.1-3.7,5.9
		c-0.3,0.8-1.3,2.4-1.9,4.1c-0.6,1.7-0.2,4.8-1,6.7c-0.8,1.9,0.6,3,0.6,3s1.3-2.9,1.7-3.7c0.3-0.8,1.1-1.7,2.1-2.6
		c1-0.8,1.3-1.4,1.3-1.4s-0.3,4.1-0.9,5.3c-0.6,1.3-0.8,2.1-0.9,2.7c-0.1,0.6,0,1.8,0.3,2.1c0.3,0.3,0.6,0.3,1.9-0.4
		c1.3-0.7,1.5-1.7,2.4-3c0.9-1.3,4.6-2.9,5.5-3.4c0.9-0.5,0.9,1.4,0.9,1.4s-2.6,4.4-4.4,6.8c-1.8,2.4-3.9,7.8-3.9,8.6
		c0.1,0.8-2.2,12.8-1.8,14.7c0.3,1.9,0.4,4.3-0.7,5.9c-1.1,1.6-3.3,6-2.8,8.2c0.6,2.2,0.1,11.3-0.8,15.2c-0.9,3.9-0.8,9.9,0.7,11.7
		c1.4,1.8,5.3,6.3,5.4,8.1c0.1,1.8-0.4,8.4-1.1,10.1c0,0-5.1-1.2-8.3,2.6c0,0,4.9-2.9,8,0.2c0,0-3.1,21.2-4.6,31
		c0,0-4.3-22.7-3.9-24.6c0,0,2.4,29.1,4.3,35.5c0,0,1.2-10.7,1.4-13.4c0.2-2.8,1.7-16.7,2.3-18.6c0.7-1.9,0.3-3.3,0.9-5
		c0.6-1.7,0.8-3.4,0.8-3.4l1.7,2.3c0,0,0.2,1.6-0.3,3c-0.6,1.4-1.1,1.6-1.1,3c0,1.4,0.9,2.1,1,3.3c0.1,1.2,0.3,1.6,0,3.3
		c-0.3,1.8-0.4,2.2-0.6,3.4c-0.1,1.2,0.8,2.1,1.4,3.9c0.7,1.8,1.1,2.6,0.9,4.9c-0.2,2.3,1.1,4.7,1.1,4.7s6,11.9,8.4,14.1
		c2.4,2.2,1.3,2.3,1.3,2.3l-1.1,9c0,0-2.1-0.6-3.1,0.7c-1,1.2-4.1,0.6-5.1,1.7c-1,1.1-2.9,2.1-2.9,2.1s-4.7-13.1-5.3-17.4
		c0,0,4.1,18.7,4,20.4c0,0-4-3.7-4.4-8.9c-0.4-5.2-2.2-6.6-2.2-6.6s-4.7-21.6-5.2-28c0,0,0.6,20.4,5.9,40.8c0,0-2.9-1.9-4.7-2
		c-1.8-0.1-1.3-0.1-2.8-0.6c-1.4-0.4-3.8,0.4-4.8-0.2c-1-0.7-2.6-0.2-4.6-3.1c-2-2.9-7.8-52.7-7.1-61.1c0.7-8.4-5.4-17.5,1.3-46.2
		c6.8-28.8,17.6-56.7,19.8-61.3C148.2,239.9,157.7,221.5,169.8,205.7L169.8,205.7z M276.8,467.7c0.1,1.2-0.6,2.1,0,4.8
		c0.4,1.8-0.3,0.4,1.9,1.8c1.5,1,1.4-0.4,2.8,2.5c0.8,1.6,3.1,3.1,3.7,5.3c0.3,1.2,1.5,2.4,0.6,3.9c-1.2,1.9-0.3,3.9-1.2,4.6
		c0,0,1.2,1.4,2.2,1.4c0.2,0,4.6,1.3,2.7,2.6c-1.8,1.2,3.7,4.7,4.7,1.9c0.3-0.9-0.5-1.5,1-1.7c1.2-0.1,0.2-0.3,1.8,0.6
		c1.3,0.8,3.9,1.1,5.4,2.3c1.6,1.4,5.1,0.8,6.6-0.3c0.4-0.3,3.1-1.5,3.8-1.2c1,0.4,4.4-0.4,3.4-1.8c-0.1-0.1-0.9-2.8,1.6-0.3
		c0.7,0.7,2.7,1.6,2.7,2.8c-0.1,1.8,2.7,2.8-0.2,7.5c-2.6,4.4-1.1,2.9-5.7,4.5c-0.3,0.1-1.7,1.2,0.6,1.2c1.8,0,0.7-1.3,3.5-1.2
		c2.6,0.1,5.6-4.8,5.4-7.2c-0.1-0.8,0.4-0.3-0.1-2.4c-0.7-3.4-1.1-4.5-3.2-7.5c0,0-4.1-3.7-4.8-4.5c-0.6-0.7-4-3.5-4.9-3.8
		c-0.6-0.2-5.6-4.4-7.2-5.3c-1.7-0.9-1.3-0.9-3.3-1.2c0,0-1-1.1-2-1.2c-0.5,0-2.6-1.3-3.9-1.5c-1.2-0.1-7.6-2.8-8.5-3.5
		c-4.4-3.3-4.8-1.3-7.9-3.2C277.6,467.6,276.8,467.6,276.8,467.7L276.8,467.7z M434.7,460.8c0,0,3.4-1.8,7.7-5.6
		C439.4,456.3,434.7,460.8,434.7,460.8L434.7,460.8z M402,462.1c0,0,9.2,0.9,22.5,0C417.1,460.8,402,462.1,402,462.1L402,462.1z
		 M411.3,477.6c0,0,5.4-2.9,12-8.8C418.6,470.6,411.3,477.6,411.3,477.6L411.3,477.6z M365.5,503.1c0,0,13.6-3.7,22.2-11.2
		C382.2,495,365.5,503.1,365.5,503.1L365.5,503.1z M333.3,503.4c0,0-1.9-6.8-0.6-7.4c0.9-0.4,2.9-0.7,4.3-0.7
		c13,8.4,30.1,17.5,46.4,20.4c-29.4-8.5-68.3-36.4-68.3-36.4s5.4,4.6,14,10.6C331,492.9,332.2,499.8,333.3,503.4L333.3,503.4z
		 M488.2,416.7c-3.6,6.4-6.2,9.6-12.6,13.1C475.5,429.8,485.5,421.6,488.2,416.7L488.2,416.7z M483.4,452.4L483.4,452.4
		c-20.7,5.6-38.2,6.7-38.2,6.7s23.6-2.8,48.1-10.6c3.4-10.6,6.9-24,7.4-35.7c-0.1,13.7-3,25.9-6.1,35.3c9-2.9,18.1-6.5,26.1-10.9
		c-8.2,5-17.4,8.9-26.4,11.9c-3.7,10.9-7.6,17.6-7.6,17.6s1.7-3.9,3.8-10c0,0-1-1.2-2.1-1.9c-1.1-0.7-1.8-1.1-2.9-1.7
		C484.5,452.7,483.4,452.4,483.4,452.4L483.4,452.4z M92.7,449c1.7-0.5,1.8-3.4,0.6-3.6c-0.3-1.2-4.8,0.9-1,3.3
		C92.7,448.9,92.7,449,92.7,449L92.7,449z M77.5,428.6c-1.7,1.1-2.6,1.9-0.5,3.2c1.9,1.2,5.3-2.7,1.2-3.5
		C77.9,428.2,77.8,428.4,77.5,428.6L77.5,428.6z M69.6,444.6c-0.1,2.1-0.3,5.8,3.5,5.1c1.2-0.2,4.7-3.8,5.2-4.9
		c0.7-1.4,2.2-2.3-0.6-4.1c-0.6-0.4-2.9,0.7-5.2,0.2C70.2,440.5,69.6,444.6,69.6,444.6L69.6,444.6z M185.9,191
		c1.1,2.2,0.1,6.8-0.1,8.8c-0.2,2,0.3,4.1,0.2,5.4c-0.1,1.3,0.1,2-0.1,3c-0.2,1-2,2.4-2,2.4l-1.2,14.8l-0.7-15l-1,4.1
		c0,0-0.9,1-2.7,2.8c-1.8,1.8-2.4,2.7-4.1,5c-1.7,2.3-2.2,5.3-2.9,8c-0.7,2.7-0.2,3.2-0.7,6.7c-0.4,3.4-2.9,5.7-4.7,7.4
		c-1.8,1.8-2.8,2.4-3.4,4c-0.7,1.6-2.3,2.7-2.4,4c-0.1,1.3,1.6,1.7,3.1,1.2c1.6-0.4,1.3,1.7,1.3,1.7s-0.7,1.6,0,2.6
		c0.7,1,0.6,1,0.8,2.3c0.2,1.3-2.5,1.4-3.1,1.4c-0.6,0-2.2-1.9-3.4-3c-1.2-1.1-0.9-2.2-0.9-4.3c0-2.1,1.2-3.6,1.7-5.1
		c0.4-1.6-0.2-2.6,0.2-7.7c0.4-5.1,1.8-6.4,2.2-8.6c0.4-2.1,2.2-5.4,3.4-7.9c1.2-2.4,3.2-5.4,4-7.6c0.8-2.1,0.3-3.1,0.9-5.4
		c0.6-2.3,2.2-5.2,4.1-8.2C176.3,200.8,185.9,191,185.9,191L185.9,191z M258,144.1c3.1-0.4-14.4,10.4-14.4,10.4s-2.4,2.2-4.4,3.1
		c-2,0.9-11.3,8.2-13.1,10.4c-1.8,2.2-10.9,11.3-12.4,12.9c-1.6,1.6-10.9,10.4-12.4,12.2c-1.6,1.8-4.9,6-4.9,6s-3.1-0.9-4-2.2
		c-0.9-1.3,0.9-4.9,1.6-7.8c0.7-2.9,5.8-7.8,5.8-7.8c-4.9,1.6-10.7,5.1-10.7,5.1C215.5,161.2,258,144.1,258,144.1L258,144.1z
		 M97,506c-0.6,0.3-1.1,0.7-0.3,1.1c0.5,0.3,0.6,1.6,1.4,0.4c0.2-0.4-0.1,0,0.3-0.4C98.7,506.8,97.7,505.8,97,506L97,506z
		 M90.2,496.8c-0.7,0.4-1.2,1-0.8,1.8c0.4,0.7,1.4,2,2.2,2c1.4,0,0.7-0.9,1.5-1.2c0.3-0.1,0.8-1,0-1.6c-0.7-0.6-0.5-0.8-1.6-0.9
		C91.3,496.8,90.6,496.6,90.2,496.8L90.2,496.8z M85.7,504.5c-0.4,0.7-1.9-0.5-1.1-1.2c0,0-0.2-1.2,1.1-1.5c0.9-0.2,1.2-0.5,2.1,0.5
		c1.2,1.4,0.3,1.2,0.3,2.3c0,0.7-1.3,0.6-1.6-0.2C86.6,504.2,85.8,504.4,85.7,504.5L85.7,504.5z M79.9,500.3c0-0.5-0.6-0.4-1-0.2
		c-0.5,0.3-0.8,0.9-0.2,1.3c0.5,0.4,0.8,0.3,1,0.1C80,501.1,79.9,500.3,79.9,500.3L79.9,500.3z M68.2,496.3
		c-0.5,1.3,0.9,1.9,1.4,1.1c0.6-0.8,1.7,0.1,1.8-1.6c0-0.2-0.6-0.4-0.8-1.1c-0.1-0.3-1-0.5-1.3,0.1c-0.1,0.2-0.4,0.7-0.5,0.9
		C68.8,495.8,68.3,496,68.2,496.3L68.2,496.3z M85.5,514.5c2,0,3.1-0.8,3.6-2.6c0.3-0.9,0.3-0.9-0.4-1.9c-1.3-1.7-2.4-1.2-2.9-2.7
		c-0.5-1.5-2.2-1.1-4-2.6c-2.1-1.7-4-0.8-5.7-1.5c-2.4-1-1.8,0.6-4.2,0.4c-2.4-0.3-2.4-0.2-4.5,0.9c-0.6,0.3-3.3,1.5-1.9,2.7
		c1.7,1.4,2.8,2.6,4.2,4.3c3.2,0.8,1.9,4.1,5.7,3.4c2.5-0.5,4.2,1.6,6.2-0.1c0.3-0.3,1,0.3,2-0.1C83.6,514.6,85.2,514.6,85.5,514.5
		L85.5,514.5z M10.2,517c-0.5,0.7-1.7,2.5-2.5,2.9c-0.1,0-1.9,1.5-1.9,2.1c0,3.2,2.5,1.2,3.3,2.9c1.5,3,3.6-0.1,5.3-0.3
		c0.8-0.1,1.4-1.7,1-2.7c-0.6-1.6-0.8-2.4-0.7-4.2c0-0.1-0.7-1.5-0.8-2.4c-0.2-1.5-0.6-1.9-1.2-1.6C12,514.2,10.9,516.1,10.2,517
		L10.2,517z M36.5,541.2c0.5,2.2-1.6,2.1,0.8,4.8c0.9,1,4.2,2.9,5.4,2c0,0,2.2-0.6,2.7-1.3c0,0,2-1.4,2.4-1.8
		c0.8-0.8,1.4-3.2,2.1-3.7c0.4-0.2,1.5-3.6,1.3-4.5c-0.1-0.6,0.7-0.6,0.2-1.9c-0.4-0.9-0.7-0.9-1.9-1.1c0,0-2.6,0.4-3.4,0.3
		c-0.3,0-4.9,1.7-5.2,2.1C40.3,537.2,36,538.9,36.5,541.2L36.5,541.2z M69.5,516.3c0.3-0.5,1.7-1.7,2.4-1.4c0.8,0.3,0.4,1.2,1.5,2.3
		c1.3,1.2,0.4,5.6,1.2,7.7c0.5,1.1,0.2,2.2,0.3,3.4c0.1,3.1-1.5,3.6-1.4,6.1c0.1,1.5-1.9,4-2.9,5c-1.4,1.4-1.8,0.4-3.5,0.4
		c-1.2,0.1-2-3.6-2.7-4.7c-0.5-0.9-2-3.4-2.6-4c-0.9-1-1.7-3.1-1.2-4.4c1-2.4,2.3-1.3,2.2-3.9c0-0.8,1.6-2.7,2.2-3.1
		c0.8-0.6,1-1.3,2.4-1.6C67.8,518.1,69.7,515.9,69.5,516.3L69.5,516.3z M121.4,521.3c0.5-0.3,0.1-1.5,1.4-1.3c0.9,0.2,0,0.7,1.4,0.9
		c1,0.2,0.1,1.8-0.5,2.1c-2.5,1.2-3.2,2.3-2.5-1.6C121.2,521.4,121.4,521.3,121.4,521.3L121.4,521.3z M96.2,523.2
		c-0.4,0.8-1.2,0.8-0.8,2.7c0.2,0.8,0.8,1.7,1.5,2.1c1.2,0.7,2.2,0.4,3.6,0.2c0.6-0.1,1.4-2,1.5-2.6c0.4-0.1,2.2-2.5-1.8-2.2
		c0,0-0.9-1-2.7-0.7c-0.8,0.2,0,0.1-0.9,0.1C96.3,522.9,96.3,522.9,96.2,523.2L96.2,523.2z M169.8,494.6c-3.3-3.9-2.3,7-2.3,8.8
		c0,4,1.3,2.2-0.6,5.6c-1.8,3,1.6,9.5,5.5,8.6c4.1-0.8,2-5.9,4.5-4.1c2,1.4,3.2-11.4,3.2-13c0-6.2,1.6-5.5-2.7-8.6
		c-3.1-2.2-3,0.5-6.2,2.1C170.3,494.4,170.1,495,169.8,494.6L169.8,494.6z M175.2,499.8c1,1.2,1.4-2.6,1.6-3c1.2-1.7-1-4-2.6-3.1
		C171.2,495.5,174.1,498.5,175.2,499.8L175.2,499.8z M185.7,497.1c3.5-0.9,0.9-7.4-2.7-2.3C181.8,496.5,185.8,497,185.7,497.1
		L185.7,497.1z M131,521.4c1.1,5.1,5.4,2,3.9-2.1C134.2,519.3,130.3,518.5,131,521.4L131,521.4z M141.7,499.4
		c-6.5,4.9-3.8,9.4-4.9,10.4c-0.3,0.2-1.7,7.5,6.4,7.5c2.9,0,5.4-0.2,8.2,0.3c2,0.4,1.7-1.6,4.8-1.6c3.9,0,8.9-6.5,7.7-9.4
		c-0.3-0.8,0.7-3.4,0.2-5.9c-0.6-3.1,0.5-12.7-4.1-12.3c-3.2,0.3-2.5-0.7-5.7,2c0,0-5.7,2.7-5.7,2.6
		C146,491.4,143.6,498.3,141.7,499.4L141.7,499.4z M140.4,495.5c-0.4,1.4-0.3,3.3-1.8,3.8c-3.4,1.2-5.3-0.2-4.5-4
		c0.3-1.5,3.4-3.7,4.1-2.8C140.1,494.6,141.3,492.4,140.4,495.5L140.4,495.5z M123,499.7c0.2,1.7,0.2,5.2-2.5,2.5
		c-0.7-0.7-4-6.6-4-7.4c0-2.3-0.5-7.5,3.7-5c0.2,0.1,4.5,6.1,3.2,8.1C123.1,498.4,123.3,499.8,123,499.7L123,499.7z M101.2,497.7
		c0,0.1-0.1,0.2-0.3,0.2c-3.2,0-2.3-0.3-4-0.5c-6.1-0.5-1-6.1-1.2-7.2c-0.7-3.3,3.2-4.4,3.9-3.7c1,0.9,4.5,2.7,4.6,2.8
		c2.6,3.1,2.3-1.6,5.5,0.3c8.7,5.1,1,4,2.6,8.5c1.6,4.4-0.3,5.2-4,6.7c-1.9,0.8-3.2-0.1-3.4,0c-0.4-1.1-0.4-2.8,0.3-3.7
		C107,498.2,103.1,500.4,101.2,497.7L101.2,497.7z M71.3,473.9c4.5,0.3,3.7,5.5,7.4,3.6c0.4-0.2,0.8-1.2,1.3-1.1
		c0-2.2-2.2,0.4-2.7-2.5C77.3,473.9,73.1,470.7,71.3,473.9L71.3,473.9z M81.9,470.7c1,1.7-0.6,0.9,2.3,1.8c0.9,0.3,1.7,3.1-0.6,1.4
		c-1.5-1.1,0.7,2.1-0.3,2c-2.4-0.2,0.7,2.9,0.7,2.9c-0.1,1.3,0.9,3.2,2.2,1.6c0.7-0.8,0.6-2.2,2.4-4.8c1.6-2.1-0.9-4-2.6-4.6
		C84.1,470.4,82.1,471,81.9,470.7L81.9,470.7z M88.3,469.2c-3.9-1.5-10.4-0.6-14.1,0.8c-3.3,1.2-4.6,0.7-6.8,3.6
		c-2.7,3.6-0.2,6.9,2.4,9.9c2.2,2.6,5,4.7,8.2,5.8c5,1.7,4.6,1.3,9.6-1.7c5.4-3.3,3.4-5.6,5.3-8.3c0.8-1.1,1.3-5,0-6.8
		C91.6,470.9,90.4,469.7,88.3,469.2L88.3,469.2z M125.3,465c-0.3-1.5-3.2-6.3-3.6-7.8c-1.3-5-4.2-9.6-0.3-14.2c3-3.7,3.2-1.6,5.1-3
		c2.2-1.6,5.2-0.4,6.2-4.6c0-0.1-0.5-3.1-0.5-3.7c0-1.7-0.6-2.1,0.2-4.1c0.7-1.7,0.4-3.5,2.9-5.5c3.3-2.6,4.4-1.4,7.9-1.5
		c3-0.1,0.3,5.9,2.8,5.9c3.9,0,0.2,3.2,0.6,4.3c3,0.6,3-0.3,4-0.1c2.1,0.4,0.5,4.5,2.6,6.3c0.1,0.1,0.1,0.2,0.1,0.4
		c0.7,0.5,5,4,5.1,3c0.3-2.4,1.9-3.1,4.1-2.3c4.8,1.7,1.4,5.1,3,5.9c2.8,1.3,6.8,3.7,6.7,7c0,0.2,0,1.8,0,2.1c1.3-0.4,4.5-2,5.7-2.9
		c0.5-0.4,4.7-1.7,5.9-1.2c1.9,0.8,2.5,0.3,5.6,2c3.4,1.8,2.2,1.1,5,3.6c1.6,1.5,2,1.2,3.3,3.9c1.2,2.6,2.6,7.4,0.1,9.7
		c-2.3,2.1-1.6,6.8-8,11c-1.5,1-1.1,2.6-4.3,2.5c-2.2-0.1,0.9,2.3-2.8,5.1c-3.4,2.6-5.8-2-6.7-4.7c-1-2.8-1.6-5.7,2.5-5.9
		c0.5,0,3.8,1.2,0.5-1.8c-0.8-0.7-1.2,0.3-2.7-1.5c-0.7-0.9-2.2,1.8-2.4,2.4c-2.5,7.3,1.6,6.9-0.5,12c-0.3,0.8-0.8,2.3-2.6,0.9
		c-1-0.8-0.1-1.7-2.4-3.3c-1.8-1.2,0.8-3-2.2-2.4c-5.9,1.2-4-3.5-7.3-2.1c-0.2,0.1-0.1,0.1-0.3,0.2c-7.6,3-2.9,5.4-5.4,7.1
		c-0.7,0.5-9.4-1.2-9.4-6.4c0-3.8,0.1-2.7,0.8-5.9c0.8-3.9-3.2-1.7,1.1-6.5c2.1-2.3-3.8-6.6-5-5c-1.3,1.7-3.2-0.5-5-0.6
		c-2.5-0.2-0.1-7.9,2.3-6.6c1,0.6,5.6-4.2,7.1-4.5c0.2-1.1-1.7-1,0-3.3c0.7-0.9,3.7,1.6,5.3,2.1c3.9,1.2,4.4,3,9.8,3.4
		c4.5,0.4-5-2.7-5.7-3.4c0,0-2.5-1.2-3.8-2.3c-1.1-1-2.8-1.7-4.4-3.4c-0.8-0.9-4.8-3.3-5.3-1.6c-0.5,1.5-1.6,1.9-1.8,4.6
		c-0.1,0.8-6.1,10.2-7.3,12.9c-2,4.6,1.9,2.7,3.9,6c0.4,0.8,2.6-2.6,4.8,2.7c0.9,2.1-3.1,3.1-2.9,5.6c0.2,2.7-3.7,0.7-4.4,1.5
		c-1.5,1.9-4,7-7.4,5.3c-2.7-1.3-3.1-5.6-3.3-8.4C122.2,471.2,124.1,466.7,125.3,465L125.3,465z M154.6,464.3c0.1-0.4,2-1.2,2.2-1.7
		c0-0.1,1.2-1.4,1.2-1.4c0.9-0.9-0.4-1.1-1.1-1.1c-1,0-0.5-0.2-1.6,0.2C154.7,460.6,154.9,463.3,154.6,464.3L154.6,464.3z
		 M154,468.2c-0.4,1.3-0.3,3,0.5,3.9c1.7,1.9,2,0.3,1.2-0.7c-1.1-1.3,0.3-4,1.7-2.9c0.5,0.4,1.6,0.9,0.4,1.9
		c-0.2,0.1-1.6,0.6-0.4,1.6c0.3,0.3,1.7-0.3,1.9,0.8c0.2,1,0.6,1.2,1.4,1.6c0.6,0.2,2.1-1.2,2.8-1.4c0.1,0,2.3-1.9,2.3-2.3
		c0-1,0.1-0.3-0.3-0.7c-0.5-0.5,1.2-1.4,0.6-2c0,0-1.1-1.5-1.3-1.7c-0.7-0.8-2-1.4-2.7-2.4c-0.3-0.4-1.9-1.3-2.3-0.7
		c-0.5,0.7-0.7,0.5-1.3,1.6c-0.3,0.5-1.5,1.4-2,1.6C155.3,466.7,154.4,467.1,154,468.2L154,468.2z M182.9,464.6
		c-0.6,1.4,1,1.8,0.2,3.1c-1.1,1.7-1,4.7,0.9,6c1,0.7,2.1,2.1,2.7,2.4c0.9,0.5,0.9-1.6-0.8-3.1c-1.3-1.2-2.9-0.6-1.3-3
		c0.9-1.3-0.3-2.4,0.7-2.9c0.6-0.3-0.2-0.7,0.4-1.6c0.6-0.9-1.8-0.1-2-0.5C183.6,464.4,183.1,464.3,182.9,464.6L182.9,464.6z
		 M172.3,455.2c-2.3,0.6-3.2,2.7-1,3.2c0.5,0.1,3,1.1,3.2-0.2c0.3-2.8,2.3,3.9,4.7,0.2c0.3-0.5,1-2.3,2.2-1.5
		c0.6,0.4,1.3-0.4,2.5,1.3c1,1.4-0.3,3.2,2.3,2.1c1.6-0.6,0.1,1.2,1.7,0.4c1-0.5-0.1,0.3,0.8-0.7c0.6-0.7,1.5,1.9,2.1,2.3
		c0.4,0.3,0.3,1.1,1.9,1.8c0.8,0.3,0.5,3.5,2.3,2.9c1.4-0.5,1.9-4.2,1-5.7c-0.5-0.9-0.5-1.8-1.7-2.9c-1.4-1.3-0.9-1.6-3.2-3.2
		c-1.6-1.1-2.7-2.1-4.5-3.2c-1.2-0.7-2.4-0.9-3.8-0.9c0,0-1.9,0.7-2.7,0.7c-1.1,0-4,1.8-0.3,2.1c0.9,0.1,2.6,2.1-0.6,1.4
		c-1.5-0.3-2,1.8-3.2,0.9c-0.4-0.3-2.6,1-2.5-0.2C173.5,455.6,172.4,455.2,172.3,455.2L172.3,455.2z M120.8,483.7
		c-0.7,0.3-1.1,2.4,1,1.9c0.1,0,1.7,0.4,1.5-0.7C123.2,484.1,121.8,483.3,120.8,483.7L120.8,483.7z M157.1,482.8
		c-1.8-0.1-0.3,3.6,1.2,1.5C159,483.4,157.9,482.8,157.1,482.8L157.1,482.8z M206,480.1c-0.1,0.3-0.5,0.6-0.8,0.7
		c-1,0.3-0.4,0.1-1.2,0.2c0,0-1.7,1.4-0.5,2.2c0.1,0.1,1.5-0.2,1.8-0.5c0.5-0.4,0.6-1.3,1.2-1.9c0.5-0.6,0-1.2-0.4-1.2
		c-0.1,0-0.5,0.2-0.3,0.3C206,479.9,206.1,479.9,206,480.1L206,480.1z M211.9,477.9c-0.7,0.3-1.6,0.8-0.8,1.4c0.6,0.5,1.2-1,2.5,1.8
		c0.3,0.6,0.2,0.3,0.5,1.1c0.5,1.6,1.4,2.4,2,3.9c0.2,0.5,1.6-0.1,1.9-0.7c0.4-0.8,0.7-0.7,1-2c0.3-1.1,0.2-2.2-0.2-3.2
		c-0.4-0.9-1.1-2.1-2-2.6c-0.7-0.4-1.6-0.5-2.3-0.2C213.8,477.5,213.1,477.4,211.9,477.9L211.9,477.9z M544.9,381.5
		c-2,4.4-3.7,10.2-4.9,12.8c-1.2,2.6-2.4,4.8-3.8,7.2c-1.3,2.4-1.7,3.7-4,7.6c-2.3,3.9-0.3,3.6-2.7,6.4c-2.3,2.9-3.1,4.3-3.8,7.2
		c-0.7,2.9-0.1,5.1-0.9,6.7c-0.8,1.6-2.4,4.7-2.4,4.7l1.7,2.4C535.8,427.7,544.9,381.5,544.9,381.5L544.9,381.5z M381.4,436.5
		c-3.2-2.2-4,3.3-1.3,3.9c1.2,0.2,3.4-0.1,3.8-1.3c0.6-1.6,0.6-1.3-1-2.7C382.6,436.1,381.9,436.8,381.4,436.5L381.4,436.5z
		 M391,436.2c-3,2.3,1.3,3.7,0.9,0.3C391.9,436.4,391.3,436,391,436.2L391,436.2z M399.5,427.2c0.1,0.1,3.7-0.1,1.4,1.9
		c-2.8,2.4-1.8-0.7-2.1-0.8C397.8,428,398.4,426.3,399.5,427.2L399.5,427.2z M420,431.2c-1.3,0.2-5.3,1.9-2.3,3.7
		c0,0,2.6,0.4,3.7,0.8c1.8,0.7,5.2-2.6,2-4.4c-0.3-0.1-1.3-1.8-2-0.5L420,431.2L420,431.2z M435.5,439.5c0.2-0.3,1-1.9,0.9-2
		c-0.8-1-3.7,0.4-4.1,1.5c-0.4,1.1-3.5,2-2.5,4.4c1.2,2.9,3.5,0.8,5-0.6C435.3,442.2,436,438.5,435.5,439.5L435.5,439.5z
		 M434.7,444.7c-3,0.2-2.4,2.8-2.1,5.1c0.3,2,4.2,5.3,5.7,3.1c0.4-0.5,0.9-1.9,0.5-2.5c-0.5-0.7,1.8-0.6,1.4-2.7
		C439.8,445.9,436,444.6,434.7,444.7L434.7,444.7z M424.4,453.3c-0.2,0.7-1.8,3,0.2,2.9C425.9,456,424.9,451.7,424.4,453.3
		L424.4,453.3z M429.7,451c-0.3,1-0.5,2.2,1.6,2.2c0.5,0,1-2.8-0.7-3C430.1,450.1,429.9,450.5,429.7,451L429.7,451z M415,458
		c-1,0.5-0.9,1.8,0.5,1.6C416.7,459.3,416,457.5,415,458L415,458z M418.1,443.9c-2.1,1.2,0.9,4.9,1,1.5
		C419.2,444.5,418.1,443.9,418.1,443.9L418.1,443.9z M415.4,443.5c-1.1,0.9,0.8,1.8,0.5,0.3C415.9,443.7,415.5,443.4,415.4,443.5
		L415.4,443.5z M287.8,518.1c1.4,0.1,3.8,0.1,5.1,1c1.5,0.9,3.2,1.5,5,1.5c0.1,0,4.5,3.6,3.8,0.3c-0.1-0.5-2.2-1-0.3-2.3
		c1-0.7-1.9-0.4-2-0.5c-0.5-0.5-7.3-3.5-8.4-2.4c-0.4,0.4-4.3,0.8-3.4,2.3L287.8,518.1L287.8,518.1z M375.3,524.4
		c-0.1,0.6-1.9,4.3,0.5,4.2c0.4,0,1.1-5.8,2.6-3.7c0.4,0.6-2.4,4,2.7-0.1c0.5-0.4,4.3-1.8,4.9-1.8c3.4-0.1,0.9-3.9-1.5-1.3
		c-1.1,1.2-1.8-0.5-2.2-0.5c-3.1,0-2.7,1.4-4.2,1.3C377.4,522.4,375.5,523.9,375.3,524.4L375.3,524.4z M328.3,515.6
		c0.5,0.1,5.5,0.4,6.7-0.9c1.2-1.4,3.9,5.8,3.9,6.1c0,0.9,0.7,2.2,0.7,2.4c0.2,1.5,1.2,2,1.6,2.8c1.2,2,1.3,0.4,1.3,0.4
		c-0.8-0.8-3-5.1-3.1-6.2c-0.1-1.3-2.9-6.9-0.3-6.4c2.6,0.5,4.2-1,5.9-1.3c2.5-0.5,5.8-3.7,2.5-2.7c-2,0.6-2.6,1.6-4.3,2.5
		c-0.6,0.3-4.3,0.3-5.1,0.2C333.9,511.6,333.4,516.4,328.3,515.6L328.3,515.6z M326.9,522.9c-0.3-0.5-0.2-0.2-0.2,0
		c-0.2,0.9,1.6,2,2.1,2.1c3.1,0.3,1.9,3,3.1,2.2c1.4-1,1.1,2.4,2.8,0.1c0.3-0.4,3.6,0.9,2.7-0.1c-1.5-1.4,0.4-0.9,0.8-1.5
		c1.8-2.8-2.5-2.4-3.9-3c-0.2-0.1-2.9,0.5-3,0.6C330.1,523.7,327.7,524.3,326.9,522.9L326.9,522.9z M257.8,489.1
		c0.5,2.7,5.7,6.7,8.3,7.5c0.5,0.2,3.9,1.4,2.5-0.1c-0.9-1-7.7-2.9-10.3-6.8C258.1,489.4,258,489.5,257.8,489.1L257.8,489.1z
		 M269.3,499.8c1.5,1.3,3.2,2.6,5.1,3.2c1.5,0.5,6.4,2.1,7.5,2.9c1.1,0.8,3.4,0.1,0.5-0.8c-0.3-0.1-6.1-3-6.5-3.2
		c-1.8-1.1-2.9-0.5-4.7-1.6C270.5,499.9,269.8,500.2,269.3,499.8L269.3,499.8z M349.7,453.5c-0.5,1.3-0.7,1.2-1.7,2.2
		c-1.1,1.2-1.3,2-0.5,3.6c0.5,1.1,3.4,2.6,4.8,2c2.4-1,3.5,0,6.8-2.2c1.3-0.9,7.9-3.7,8.5-4.3c2-2.1,1.4-3,1.7-5.7
		c0.1-1.1-0.2-3.3,0.5-4.1c0.5-0.6,1.3-3.9,0.3-4.5c-1.2-0.8-3,0.7-4,0.2c-0.3-0.2-4.2,1.1-5.1,1.2c-1.8,0.2-2.3,2.1-3.6,3.3
		c-1.5,1.4-1.1,2.2-3.2,2.6c-0.4,0.1-0.7,0.5-1.8,0.7c-2.1,0.4-1.8,2.7-2.5,3.8C350,452.3,349.9,453.6,349.7,453.5L349.7,453.5z
		 M374,453.3c0,0.3-1.3,2-0.9,2.4c0.6,0.8,0.1,1.4,0,1.8c-0.2,1.6,0.2,1.8,1.6,1.8c3.2,0,1.9-0.5,3.2-1.2c0.9-0.4,2.2-2.1,1.5-2.6
		c-1.9-1.7-0.7-2.4-1.6-3.9C376.1,449.2,373.8,451.6,374,453.3L374,453.3z M371.4,462.2c-0.9,0-1.2,0.6-0.9,1.4
		c0.1,0.4,1.2,1.7,2,1.2c0.5-0.4,1-0.4,1.2-1.2C373.9,462.1,372.1,462.2,371.4,462.2L371.4,462.2z M370.5,456.1
		c-1.6,0.5-0.2,1.4,0.2,1.2C372.2,456.7,370.7,456,370.5,456.1L370.5,456.1z M366.9,472c0,0.3-0.9,3,0.7,2.7c0.2,0,1.2-2.3,1.2-2.4
		C368.6,472.3,366.9,471.2,366.9,472L366.9,472z M356.7,467.9c-1.8,0-3.6,1-2.8,3c0.5,1.3-2.2,0.4,0.6,3.4c1.2,1.2,3.1-0.5,3-1.8
		c0-0.3,0.7-1.9,0.2-3.2C357.6,469,357.2,467.9,356.7,467.9L356.7,467.9z M351.3,469.6c0-0.1-0.8-4.1-2.3-1.3
		c-1,1.8-2.9,3.3-1.5,5.2c0.9,1.2,2.2,3.4,3.9,2.4c0.6-0.3-0.5-1.2,0.2-2.9C352,472.4,351.7,470.3,351.3,469.6L351.3,469.6z
		 M341,456.5c-1.1,0-1.4-1-2.7-1.4c-1.7-0.6-2,1.1-3.4,2.2c-1.1,0.9-2.2,1.9-2.4,3.4c-0.2,1.4,0,3-0.7,4.2c-0.8,1.2,0.5,4.7,1.1,5.9
		c0.8,1.6,2.3,2.5,4.1,2.7c1.6,0.2,1.6,0.9,4,0.6c2-0.2,4-0.5,4.6-2.7c0.8-2.6-0.2-1.3,1.8-3.6c1.8-2-1.7-6.7-1.5-8.6
		c0.1-0.9-1.1-4.2-3-3.4C342.2,456.1,342.1,455.8,341,456.5L341,456.5z M338,458.3c-1.6,0.5-1.7,3.2-2.2,4.5c-0.4,1,0.9,2.8,1.4,1.2
		c0.5-1.5-0.3-2.6,1.9-3.9c0.8-0.4,1-2.5-0.1-1.8C338.8,458.5,338.6,458.1,338,458.3L338,458.3z M391,474.7
		c-1.2,1.7-6.5,0.1-4.2,6.1c0.2,0.6,1.8,2.4,2.8,2.4c3.2-0.1,3.2-1.7,4.1-4.2c0.1-0.3-0.1-0.4,0.2-1.2c0.3-0.8,1.5-3.4-0.3-3.8
		c-0.5-0.1-0.5,0.5-1.4,0.3C391.4,474.2,391.4,474.7,391,474.7L391,474.7z M427.8,460.4c-0.9,0-1.7,0.2-1.8,1.3c0,0.3,0.6,1.5,1,1.8
		c0.6,0.5,2.2,2.9,3,2.4c0.1-0.1,0.9-1,1.6-1.4c0.1,0,1.9-1.5,2-1.6c0.6-1,0.5-2.3-1-2.3C431,460.5,429.4,460.4,427.8,460.4
		L427.8,460.4z M294.8,464.3c-0.5-0.4-0.3-0.5-0.9-0.6c-0.7-0.1-0.9,0.3-1.6,0.8c-0.4,0.2-1.1,1.9-0.8,2.4c0.4,0.7,0.1,2,1.6,2.9
		c0.5,0.3,1.4,0.6,1.8,0.1c0.7-0.8,0.2-0.7,1.1-1.5c0.4-0.3,0.9-1,1.4-1.1c0.3,0,1.9-1.2,2-1.5c0.1-0.2,0.5-0.5,0.2-1.1
		c0,0-0.8-0.2-0.9-0.2c-0.3-0.2-3,0.2-3.8-0.2C295,464.3,294.8,464.3,294.8,464.3L294.8,464.3z M295.8,462c0.1-0.8-0.8-1.1-1.6,0
		c-0.5,0.7,1.7,1.5,1.8,0.2C296,462.1,295.8,462,295.8,462L295.8,462z M300.7,458.9c-0.9,0.4-2.1,1.8-1.7,2.8
		c0.4,0.9,0.9,1.6,1.9,1.6c0.5,0,0.5-0.2,0.9-0.6c0.3-0.3,0.1-1,0.5-1.8C302.7,460.2,301.1,458.7,300.7,458.9L300.7,458.9z
		 M304.3,459c-1.6,0.4-0.5,2.5,0.4,1.9c0.4-0.3,0.8-0.7,0.4-1.3C305,459.4,304.8,458.6,304.3,459L304.3,459z M166.6,423.5
		c-0.9-2.3-4-4.1-6.5-3.6c-1.5,0.3-2.8,2.1,1,1.3c1-0.2,4.5,1.5,1,1.9c-0.8,0.1-3.5,2.1-2,2.8c0.7,0.3-1.6,1.2-1.5,4.1
		c0.1,1.4-2.9,2.3-3.1-0.1c0,0-0.4-0.3-0.7-0.2c-1-0.2-2-0.3-1.8,1.3c0.1,0.7,2,0.8,2.5,2.7c0.4,1.3,1.5,3.1,2.2,1.1
		c0.6-1.6,4.6-3,5.1-2.7c0.2,0.1,0.6,4.4,3,1.5c1.6-1.9-2-2,0.7-3.6c0.6-0.3,1.2,1.4,4.3-1c0,0,2.6,0.1,2.9,1.2
		c0.8,2.4,4.3,1.2,5.8,2.6c1.1,1,1.4,2.3-0.1,2.8c0.5,0,1.6,0.9,1.8,0.2c0.4-0.1,0.7-3.4,4.6,0.6c0.6,0.6-0.1-0.8,1.8,0.7
		c1,0.8,2.5-1.4,5-0.5c1.1,0.4,5.6,0.2,6.9-0.6c0.7-0.4,5.1-3.3,3.9-3.8c-1.1-0.6-2,2.2-2.5-0.3c-0.3-1.4-1.3,0.8-1.8-1.4
		c-0.3-1.6-1.5,0.3-2.3,0.3c-3.3-0.1-1.9,0-1.8-2.9c0-1-5.7-1.9-3.6-3.4c1.7-1.2,5.1,4.4,5.2,2.9c0-0.2-1.1-1.4-1.4-2.6
		c-0.7-3.4,4.2-0.5,6-0.5c1.1,0,2.3-0.2,3.2,0.4c0.4,0.3,0.7-3.1-4.1-2.1c-0.4,0.1-1-1.1-3.4-0.6c-0.4,0.1-3.5-0.7-5.8-0.4
		c-1.9,0.2-3.8-0.5-5.6,0.7c-0.3,0.2-2.5,0-3.2-0.5c-1.4-1-4.9,3.7-4.8,1c0-0.7-0.8-2.4,0.6-4.5c0.1-0.1,1.6-2.7,1.6-2.8
		c0.8-2.3-2.2-5.2-4.3-3.1c-2,2,0.5,1.9-4.1,5.2c0,0-4.2-0.5-3.1,1.8c0.3,0.6,1.7,0.6,1.7,2.3c0,0-0.8,0.8-1.2,0.9
		c-0.6,0.2-1.1,0.2-1.2,0.7C167.2,423.9,167,423.1,166.6,423.5L166.6,423.5z M155.2,426c-1.5-0.6-1.8-0.1-2.3,1.2
		c-0.8,1.9,6.9,0.7,3-0.9C155.9,426.2,155.3,426,155.2,426L155.2,426z M150.2,424.4c-1.6,4.6,4.6-1.6,0.5-0.4
		C150.5,424,150.3,424.2,150.2,424.4L150.2,424.4z M201.2,332.2c2.4,2.7,1.9,4,1.8,7.5C203.1,335.7,201.2,332.2,201.2,332.2
		L201.2,332.2z M217,380.8c0.2-0.1,1.1,0.4,1.4,0.5c1,0.3,0.6,1,0.9,1.6c0.4,0.8,0.4,2.4-0.2,3.1c-0.6,0.7-0.9,2-1.4,2.3
		c-1.5,0.6-3.5-1.2-3.6-2.3c-0.1-1.3,0.1-1.5,0.9-2.4C215.8,382.7,215.7,381.2,217,380.8L217,380.8z M212.9,389.8
		c0.2,0,0.5,0.2,0.6,0.3c0.4,0.2,0.6,0.7,0.3,1.1c-0.4,0.6-0.4,0.8-1.1,0.7C210.9,391.6,212.2,389.9,212.9,389.8L212.9,389.8z
		 M347.4,278.6c-0.3-1.8-0.6-1.8,0.1-3.5c0.4-1,1-1.3,1.9-1.8c0.5-0.3,2,0.4,1.7,1.8c-0.2,0.8,2.4,1.5,0.6,3.2
		c-0.8,0.8,0.6,2.8-1.1,4c-0.2,0.2-0.7,4.1-3.2,1.3c-1-1.1-0.1-2.9-0.1-4.3C347.2,279.1,347.4,278.5,347.4,278.6L347.4,278.6z
		 M366.9,288.4c0.3-0.3,0.9-0.8,1.1-1c1.6-2.3,2-2.2,4-3.8c0.5-0.4,3.3-0.5,3.6-0.6c0.6-0.2,1.4,0.4,1.4,0.4c0,0,1.4-1.8,2.8-0.7
		c1.4,1.2,0.4,2.5-0.4,3.8c-1.1,1.7-3.5,3.2-3.8,4.4c-0.4,1.6-2,2.6-3.2,3.6c-0.3,0.2-2.6,2-2.6,2c-0.7,0.7-1.8,1.2-2.6,1.8
		c-1.3,0.8-2.9,0.7-3.5-0.9c-0.4-1,0-2.6,0.6-3.4C365.4,292.5,366.4,288.9,366.9,288.4L366.9,288.4z M429.5,264.4
		c1.8,1.7,3,0.2,2.5,4.2c-0.1,1.1,0.3,0.4-0.4,1.5c0,0,1,1.6-0.2,2.3c-0.8,0.4-2.7-1.5-1.2-2.6c0.2-0.2-0.7-1.1-0.7-2.3
		C429.5,266.5,430,264.9,429.5,264.4L429.5,264.4z M409.6,265.8c0.4,0,5.5,0.1,5.1,0.9c-0.5,1-2,1-3,0.9c-0.7-0.1-2.9-0.6-3.2-1.3
		C408.1,265.4,409.6,265.8,409.6,265.8L409.6,265.8z M432.1,253.7c0.1,0,0.1,0,0.1,0.1c1.1,1.1,0.7,4.2,0.4,4.2
		c-1.3,0.1-0.2-2.2-1.3-2.5C430.2,255,430.7,254,432.1,253.7L432.1,253.7z M426.3,246.9c-0.6,1.5,0.7,3,1.7,4
		c0.4,0.4,2.8,1.5,2.8,1.7c0,1-2.4-0.1-2.7-0.2c-1.3-0.5-3.9-3.5-2.8-4.9C425.3,247.4,426.5,246.3,426.3,246.9L426.3,246.9z
		 M429.1,239.6c0,0.1,0.2,0,0.3,0.1c1.3,0.9,1.4-1.4,2.2-1c0.7,0.3-0.1,1.1-0.2,1.3c-0.8,1.4-0.8-0.1-2,0.9
		c-0.6,0.5-2.1,2.3-2.9,2.2C424.9,242.7,428.9,239.8,429.1,239.6L429.1,239.6z M435.7,240.4c1.2,0.5-0.2,0.5,1.3,1.2
		c0.4,0.2,2.9,2.9,0.8,2.5c-0.3-0.1-1.2-1.9-2.5-2C434.7,241.9,433.7,239.3,435.7,240.4L435.7,240.4z M438.6,244.9
		c0-0.1,0-0.1,0-0.1c1.1-1.3,0.9,2.1,0.5,2.5C437.7,248.8,438.6,245.1,438.6,244.9z"/>
</g>
</svg>
